G04 #@! TF.GenerationSoftware,KiCad,Pcbnew,6.0.11-2627ca5db0~126~ubuntu20.04.1*
G04 #@! TF.CreationDate,2025-11-03T09:59:40+01:00*
G04 #@! TF.ProjectId,attiny85_catch_me_bcl-1,61747469-6e79-4383-955f-63617463685f,1.0*
G04 #@! TF.SameCoordinates,Original*
G04 #@! TF.FileFunction,Copper,L2,Bot*
G04 #@! TF.FilePolarity,Positive*
%FSLAX46Y46*%
G04 Gerber Fmt 4.6, Leading zero omitted, Abs format (unit mm)*
G04 Created by KiCad (PCBNEW 6.0.11-2627ca5db0~126~ubuntu20.04.1) date 2025-11-03 09:59:40*
%MOMM*%
%LPD*%
G01*
G04 APERTURE LIST*
G04 Aperture macros list*
%AMRoundRect*
0 Rectangle with rounded corners*
0 $1 Rounding radius*
0 $2 $3 $4 $5 $6 $7 $8 $9 X,Y pos of 4 corners*
0 Add a 4 corners polygon primitive as box body*
4,1,4,$2,$3,$4,$5,$6,$7,$8,$9,$2,$3,0*
0 Add four circle primitives for the rounded corners*
1,1,$1+$1,$2,$3*
1,1,$1+$1,$4,$5*
1,1,$1+$1,$6,$7*
1,1,$1+$1,$8,$9*
0 Add four rect primitives between the rounded corners*
20,1,$1+$1,$2,$3,$4,$5,0*
20,1,$1+$1,$4,$5,$6,$7,0*
20,1,$1+$1,$6,$7,$8,$9,0*
20,1,$1+$1,$8,$9,$2,$3,0*%
%AMRotRect*
0 Rectangle, with rotation*
0 The origin of the aperture is its center*
0 $1 length*
0 $2 width*
0 $3 Rotation angle, in degrees counterclockwise*
0 Add horizontal line*
21,1,$1,$2,0,0,$3*%
G04 Aperture macros list end*
G04 #@! TA.AperFunction,ComponentPad*
%ADD10RoundRect,0.475000X0.413263X0.667431X-0.753713X0.219471X-0.413263X-0.667431X0.753713X-0.219471X0*%
G04 #@! TD*
G04 #@! TA.AperFunction,ComponentPad*
%ADD11RotRect,1.524000X1.524000X201.000000*%
G04 #@! TD*
G04 #@! TA.AperFunction,ComponentPad*
%ADD12C,1.524000*%
G04 #@! TD*
G04 #@! TA.AperFunction,ComponentPad*
%ADD13C,1.600000*%
G04 #@! TD*
G04 #@! TA.AperFunction,ComponentPad*
%ADD14O,1.600000X1.600000*%
G04 #@! TD*
G04 #@! TA.AperFunction,ComponentPad*
%ADD15R,1.600000X1.600000*%
G04 #@! TD*
G04 #@! TA.AperFunction,ComponentPad*
%ADD16O,3.048000X1.850000*%
G04 #@! TD*
G04 #@! TA.AperFunction,ComponentPad*
%ADD17R,1.800000X1.800000*%
G04 #@! TD*
G04 #@! TA.AperFunction,ComponentPad*
%ADD18C,1.800000*%
G04 #@! TD*
G04 #@! TA.AperFunction,Conductor*
%ADD19C,0.500000*%
G04 #@! TD*
G04 #@! TA.AperFunction,Conductor*
%ADD20C,0.800000*%
G04 #@! TD*
G04 APERTURE END LIST*
D10*
X78605146Y-105196038D03*
X75594854Y-97353962D03*
D11*
X77816736Y-103142161D03*
D12*
X77100000Y-101275000D03*
X76383264Y-99407839D03*
D13*
X120000000Y-89620000D03*
D14*
X120000000Y-82000000D03*
D13*
X117000000Y-89620000D03*
D14*
X117000000Y-82000000D03*
D13*
X114000000Y-89620000D03*
D14*
X114000000Y-82000000D03*
D13*
X96000000Y-89620000D03*
D14*
X96000000Y-82000000D03*
D15*
X101190000Y-82000000D03*
D14*
X101190000Y-84540000D03*
X101190000Y-87080000D03*
X101190000Y-89620000D03*
X108810000Y-89620000D03*
X108810000Y-87080000D03*
X108810000Y-84540000D03*
X108810000Y-82000000D03*
D16*
X111250000Y-123000000D03*
X98750000Y-123000000D03*
X111250000Y-118000000D03*
X98750000Y-118000000D03*
D13*
X107500000Y-78750000D03*
X102500000Y-78750000D03*
D17*
X125000000Y-72500000D03*
D18*
X125000000Y-75040000D03*
X125000000Y-77580000D03*
D17*
X115000000Y-70500000D03*
D18*
X115000000Y-73040000D03*
X115000000Y-75580000D03*
D17*
X85000000Y-72500000D03*
D18*
X85000000Y-75040000D03*
X85000000Y-77580000D03*
D13*
X81000000Y-82000000D03*
D14*
X81000000Y-89620000D03*
D13*
X87000000Y-82000000D03*
D14*
X87000000Y-89620000D03*
D17*
X105000000Y-70000000D03*
D18*
X105000000Y-72540000D03*
X105000000Y-75080000D03*
D17*
X95000000Y-70500000D03*
D18*
X95000000Y-73040000D03*
X95000000Y-75580000D03*
D13*
X126000000Y-82000000D03*
D14*
X126000000Y-89620000D03*
D13*
X90000000Y-82000000D03*
D14*
X90000000Y-89620000D03*
D13*
X123000000Y-82000000D03*
D14*
X123000000Y-89620000D03*
D13*
X84000000Y-82000000D03*
D14*
X84000000Y-89620000D03*
D17*
X135000000Y-75700000D03*
D18*
X135000000Y-78240000D03*
X135000000Y-80780000D03*
D13*
X93000000Y-89620000D03*
D14*
X93000000Y-82000000D03*
D17*
X75000000Y-75700000D03*
D18*
X75000000Y-78240000D03*
X75000000Y-80780000D03*
D13*
X129000000Y-82000000D03*
D14*
X129000000Y-89620000D03*
D19*
X108810000Y-87080000D02*
X114460000Y-87080000D01*
X114460000Y-87080000D02*
X117000000Y-89620000D01*
D20*
X93664903Y-99407839D02*
X107210000Y-85862742D01*
X107210000Y-85862742D02*
X107210000Y-83600000D01*
X76383264Y-99407839D02*
X93664903Y-99407839D01*
X107210000Y-83600000D02*
X108810000Y-82000000D01*
D19*
X76350000Y-81970000D02*
X76350000Y-79590000D01*
X114248630Y-82000000D02*
X114000000Y-82000000D01*
X76350000Y-79590000D02*
X75000000Y-78240000D01*
X124250000Y-90870000D02*
X127750000Y-90870000D01*
X123000000Y-89620000D02*
X124250000Y-90870000D01*
X84000000Y-89620000D02*
X76350000Y-81970000D01*
X123000000Y-89620000D02*
X121868630Y-89620000D01*
X121868630Y-89620000D02*
X114248630Y-82000000D01*
X127750000Y-90870000D02*
X129000000Y-89620000D01*
X117000000Y-77580000D02*
X115000000Y-75580000D01*
X132530000Y-83250000D02*
X135000000Y-80780000D01*
X91750000Y-87870000D02*
X90000000Y-89620000D01*
X117000000Y-82000000D02*
X118250000Y-83250000D01*
X111960000Y-72540000D02*
X115000000Y-75580000D01*
X95000000Y-73040000D02*
X91750000Y-76290000D01*
X118250000Y-83250000D02*
X132530000Y-83250000D01*
X104500000Y-73040000D02*
X105000000Y-72540000D01*
X95000000Y-73040000D02*
X104500000Y-73040000D01*
X105000000Y-72540000D02*
X111960000Y-72540000D01*
X117000000Y-82000000D02*
X117000000Y-77580000D01*
X91750000Y-76290000D02*
X91750000Y-87870000D01*
X120000000Y-89620000D02*
X114920000Y-84540000D01*
X114920000Y-84540000D02*
X108810000Y-84540000D01*
X90000000Y-82000000D02*
X88662600Y-83337400D01*
X79070617Y-82702817D02*
X79070617Y-79770617D01*
X79070617Y-79770617D02*
X75000000Y-75700000D01*
X80569633Y-83337400D02*
X80544233Y-83312000D01*
X88662600Y-83337400D02*
X80569633Y-83337400D01*
X79679800Y-83312000D02*
X79070617Y-82702817D01*
X80544233Y-83312000D02*
X79679800Y-83312000D01*
X81000000Y-76500000D02*
X85000000Y-72500000D01*
X81000000Y-82000000D02*
X81000000Y-76500000D01*
X108810000Y-89620000D02*
X114000000Y-89620000D01*
X95000000Y-71000000D02*
X84000000Y-82000000D01*
X95000000Y-70500000D02*
X95000000Y-71000000D01*
X85750000Y-90870000D02*
X87000000Y-89620000D01*
X82250000Y-90870000D02*
X85750000Y-90870000D01*
X81000000Y-89620000D02*
X82250000Y-90870000D01*
X123000000Y-78500000D02*
X115000000Y-70500000D01*
X123000000Y-82000000D02*
X123000000Y-78500000D01*
X126799999Y-81200001D02*
X126799999Y-74299999D01*
X126000000Y-82000000D02*
X126799999Y-81200001D01*
X126799999Y-74299999D02*
X125000000Y-72500000D01*
X135000000Y-76000000D02*
X135000000Y-75700000D01*
X129000000Y-82000000D02*
X135000000Y-76000000D01*
X101080000Y-84540000D02*
X101190000Y-84540000D01*
X96000000Y-89620000D02*
X101080000Y-84540000D01*
X94250000Y-90870000D02*
X97400000Y-90870000D01*
X93000000Y-89620000D02*
X94250000Y-90870000D01*
X97400000Y-90870000D02*
X101190000Y-87080000D01*
G04 #@! TA.AperFunction,NonConductor*
G36*
X90909532Y-76267315D02*
G01*
X90966368Y-76309862D01*
X90991179Y-76376382D01*
X90991500Y-76385371D01*
X90991500Y-80854829D01*
X90971498Y-80922950D01*
X90917842Y-80969443D01*
X90847568Y-80979547D01*
X90793230Y-80958043D01*
X90656749Y-80862477D01*
X90651767Y-80860154D01*
X90651762Y-80860151D01*
X90454225Y-80768039D01*
X90454224Y-80768039D01*
X90449243Y-80765716D01*
X90443935Y-80764294D01*
X90443933Y-80764293D01*
X90233402Y-80707881D01*
X90233400Y-80707881D01*
X90228087Y-80706457D01*
X90000000Y-80686502D01*
X89771913Y-80706457D01*
X89766600Y-80707881D01*
X89766598Y-80707881D01*
X89556067Y-80764293D01*
X89556065Y-80764294D01*
X89550757Y-80765716D01*
X89545776Y-80768039D01*
X89545775Y-80768039D01*
X89348238Y-80860151D01*
X89348233Y-80860154D01*
X89343251Y-80862477D01*
X89266970Y-80915890D01*
X89160211Y-80990643D01*
X89160208Y-80990645D01*
X89155700Y-80993802D01*
X88993802Y-81155700D01*
X88990645Y-81160208D01*
X88990643Y-81160211D01*
X88935902Y-81238389D01*
X88862477Y-81343251D01*
X88860154Y-81348233D01*
X88860151Y-81348238D01*
X88768039Y-81545775D01*
X88765716Y-81550757D01*
X88764294Y-81556065D01*
X88764293Y-81556067D01*
X88707881Y-81766598D01*
X88706457Y-81771913D01*
X88686502Y-82000000D01*
X88686981Y-82005475D01*
X88700755Y-82162913D01*
X88686766Y-82232518D01*
X88664329Y-82262990D01*
X88477559Y-82449760D01*
X88415247Y-82483786D01*
X88344432Y-82478721D01*
X88287596Y-82436174D01*
X88262785Y-82369654D01*
X88266757Y-82328054D01*
X88292119Y-82233402D01*
X88292120Y-82233399D01*
X88293543Y-82228087D01*
X88313498Y-82000000D01*
X88293543Y-81771913D01*
X88292119Y-81766598D01*
X88235707Y-81556067D01*
X88235706Y-81556065D01*
X88234284Y-81550757D01*
X88231961Y-81545775D01*
X88139849Y-81348238D01*
X88139846Y-81348233D01*
X88137523Y-81343251D01*
X88064098Y-81238389D01*
X88009357Y-81160211D01*
X88009355Y-81160208D01*
X88006198Y-81155700D01*
X87844300Y-80993802D01*
X87839792Y-80990645D01*
X87839789Y-80990643D01*
X87733030Y-80915890D01*
X87656749Y-80862477D01*
X87651767Y-80860154D01*
X87651762Y-80860151D01*
X87454225Y-80768039D01*
X87454224Y-80768039D01*
X87449243Y-80765716D01*
X87443935Y-80764294D01*
X87443933Y-80764293D01*
X87233402Y-80707881D01*
X87233400Y-80707881D01*
X87228087Y-80706457D01*
X87000000Y-80686502D01*
X86771913Y-80706457D01*
X86766600Y-80707881D01*
X86766598Y-80707881D01*
X86671946Y-80733243D01*
X86600970Y-80731553D01*
X86542174Y-80691759D01*
X86514226Y-80626495D01*
X86525999Y-80556481D01*
X86550240Y-80522441D01*
X90776405Y-76296276D01*
X90838717Y-76262250D01*
X90909532Y-76267315D01*
G37*
G04 #@! TD.AperFunction*
G04 #@! TA.AperFunction,NonConductor*
G36*
X133580432Y-78596415D02*
G01*
X133637268Y-78638962D01*
X133653142Y-78667066D01*
X133680494Y-78734425D01*
X133729286Y-78854584D01*
X133738484Y-78877237D01*
X133859501Y-79074719D01*
X134011147Y-79249784D01*
X134189349Y-79397730D01*
X134193819Y-79400342D01*
X134197511Y-79402500D01*
X134246232Y-79454140D01*
X134259301Y-79523924D01*
X134232566Y-79589694D01*
X134209589Y-79612045D01*
X134094956Y-79698114D01*
X134061655Y-79723117D01*
X133901639Y-79890564D01*
X133898725Y-79894836D01*
X133898724Y-79894837D01*
X133883152Y-79917665D01*
X133771119Y-80081899D01*
X133673602Y-80291981D01*
X133611707Y-80515169D01*
X133587095Y-80745469D01*
X133587392Y-80750622D01*
X133587392Y-80750625D01*
X133593067Y-80849041D01*
X133600427Y-80976697D01*
X133609112Y-81015234D01*
X133604576Y-81086083D01*
X133575290Y-81132029D01*
X132252724Y-82454595D01*
X132190412Y-82488621D01*
X132163629Y-82491500D01*
X130387168Y-82491500D01*
X130319047Y-82471498D01*
X130272554Y-82417842D01*
X130262450Y-82347568D01*
X130265461Y-82332888D01*
X130293543Y-82228087D01*
X130313498Y-82000000D01*
X130312251Y-81985750D01*
X130299245Y-81837087D01*
X130313234Y-81767482D01*
X130335671Y-81737010D01*
X133447305Y-78625376D01*
X133509617Y-78591350D01*
X133580432Y-78596415D01*
G37*
G04 #@! TD.AperFunction*
G04 #@! TA.AperFunction,NonConductor*
G36*
X116606817Y-73179498D02*
G01*
X122204595Y-78777276D01*
X122238621Y-78839588D01*
X122241500Y-78866371D01*
X122241500Y-80868133D01*
X122221498Y-80936254D01*
X122187772Y-80971345D01*
X122155700Y-80993802D01*
X121993802Y-81155700D01*
X121990645Y-81160208D01*
X121990643Y-81160211D01*
X121935902Y-81238389D01*
X121862477Y-81343251D01*
X121860154Y-81348233D01*
X121860151Y-81348238D01*
X121768039Y-81545775D01*
X121765716Y-81550757D01*
X121764294Y-81556065D01*
X121764293Y-81556067D01*
X121707881Y-81766598D01*
X121706457Y-81771913D01*
X121686502Y-82000000D01*
X121706457Y-82228087D01*
X121734539Y-82332888D01*
X121732849Y-82403865D01*
X121693055Y-82462661D01*
X121627791Y-82490609D01*
X121612832Y-82491500D01*
X121387168Y-82491500D01*
X121319047Y-82471498D01*
X121272554Y-82417842D01*
X121262450Y-82347568D01*
X121265461Y-82332888D01*
X121293543Y-82228087D01*
X121313498Y-82000000D01*
X121293543Y-81771913D01*
X121292119Y-81766598D01*
X121235707Y-81556067D01*
X121235706Y-81556065D01*
X121234284Y-81550757D01*
X121231961Y-81545775D01*
X121139849Y-81348238D01*
X121139846Y-81348233D01*
X121137523Y-81343251D01*
X121064098Y-81238389D01*
X121009357Y-81160211D01*
X121009355Y-81160208D01*
X121006198Y-81155700D01*
X120844300Y-80993802D01*
X120839792Y-80990645D01*
X120839789Y-80990643D01*
X120733030Y-80915890D01*
X120656749Y-80862477D01*
X120651767Y-80860154D01*
X120651762Y-80860151D01*
X120454225Y-80768039D01*
X120454224Y-80768039D01*
X120449243Y-80765716D01*
X120443935Y-80764294D01*
X120443933Y-80764293D01*
X120233402Y-80707881D01*
X120233400Y-80707881D01*
X120228087Y-80706457D01*
X120000000Y-80686502D01*
X119771913Y-80706457D01*
X119766600Y-80707881D01*
X119766598Y-80707881D01*
X119556067Y-80764293D01*
X119556065Y-80764294D01*
X119550757Y-80765716D01*
X119545776Y-80768039D01*
X119545775Y-80768039D01*
X119348238Y-80860151D01*
X119348233Y-80860154D01*
X119343251Y-80862477D01*
X119266970Y-80915890D01*
X119160211Y-80990643D01*
X119160208Y-80990645D01*
X119155700Y-80993802D01*
X118993802Y-81155700D01*
X118990645Y-81160208D01*
X118990643Y-81160211D01*
X118935902Y-81238389D01*
X118862477Y-81343251D01*
X118860154Y-81348233D01*
X118860151Y-81348238D01*
X118768039Y-81545775D01*
X118765716Y-81550757D01*
X118764294Y-81556065D01*
X118764293Y-81556067D01*
X118707881Y-81766598D01*
X118706457Y-81771913D01*
X118686502Y-82000000D01*
X118706457Y-82228087D01*
X118707880Y-82233399D01*
X118707881Y-82233402D01*
X118733243Y-82328054D01*
X118731553Y-82399030D01*
X118691759Y-82457826D01*
X118626495Y-82485774D01*
X118556481Y-82474001D01*
X118522441Y-82449760D01*
X118335671Y-82262990D01*
X118301645Y-82200678D01*
X118299245Y-82162913D01*
X118313019Y-82005475D01*
X118313498Y-82000000D01*
X118293543Y-81771913D01*
X118292119Y-81766598D01*
X118235707Y-81556067D01*
X118235706Y-81556065D01*
X118234284Y-81550757D01*
X118231961Y-81545775D01*
X118139849Y-81348238D01*
X118139846Y-81348233D01*
X118137523Y-81343251D01*
X118064098Y-81238389D01*
X118009357Y-81160211D01*
X118009355Y-81160208D01*
X118006198Y-81155700D01*
X117844300Y-80993802D01*
X117812229Y-80971345D01*
X117767901Y-80915890D01*
X117758500Y-80868133D01*
X117758500Y-77647069D01*
X117759933Y-77628118D01*
X117762099Y-77613883D01*
X117762099Y-77613881D01*
X117763199Y-77606651D01*
X117760777Y-77576868D01*
X117758915Y-77553982D01*
X117758500Y-77543767D01*
X117758500Y-77535707D01*
X117756440Y-77518039D01*
X117755211Y-77507493D01*
X117754778Y-77503118D01*
X117749454Y-77437661D01*
X117749453Y-77437658D01*
X117748860Y-77430363D01*
X117746604Y-77423399D01*
X117745413Y-77417440D01*
X117744029Y-77411585D01*
X117743182Y-77404319D01*
X117718265Y-77335673D01*
X117716848Y-77331545D01*
X117696607Y-77269064D01*
X117696606Y-77269062D01*
X117694351Y-77262101D01*
X117690555Y-77255846D01*
X117688049Y-77250372D01*
X117685330Y-77244942D01*
X117682833Y-77238063D01*
X117678820Y-77231942D01*
X117642814Y-77177024D01*
X117640467Y-77173305D01*
X117602595Y-77110893D01*
X117595197Y-77102516D01*
X117595224Y-77102492D01*
X117592571Y-77099500D01*
X117589868Y-77096267D01*
X117585856Y-77090148D01*
X117529617Y-77036872D01*
X117527175Y-77034494D01*
X116424176Y-75931495D01*
X116390150Y-75869183D01*
X116388349Y-75825954D01*
X116411203Y-75652362D01*
X116411203Y-75652358D01*
X116411640Y-75649041D01*
X116412733Y-75604327D01*
X116413245Y-75583365D01*
X116413245Y-75583361D01*
X116413327Y-75580000D01*
X116404072Y-75467428D01*
X116394773Y-75354318D01*
X116394772Y-75354312D01*
X116394349Y-75349167D01*
X116363587Y-75226698D01*
X116339184Y-75129544D01*
X116339183Y-75129540D01*
X116337925Y-75124533D01*
X116331189Y-75109041D01*
X116247630Y-74916868D01*
X116247628Y-74916865D01*
X116245570Y-74912131D01*
X116119764Y-74717665D01*
X116115720Y-74713220D01*
X116039580Y-74629544D01*
X115963887Y-74546358D01*
X115959836Y-74543159D01*
X115959832Y-74543155D01*
X115787077Y-74406722D01*
X115746014Y-74348805D01*
X115742782Y-74277882D01*
X115778407Y-74216470D01*
X115792001Y-74205261D01*
X115806615Y-74194837D01*
X115912243Y-74119494D01*
X116076303Y-73956005D01*
X116211458Y-73767917D01*
X116216918Y-73756871D01*
X116311784Y-73564922D01*
X116311785Y-73564920D01*
X116314078Y-73560280D01*
X116381408Y-73338671D01*
X116382083Y-73333544D01*
X116392800Y-73252146D01*
X116421523Y-73187219D01*
X116480789Y-73148128D01*
X116551780Y-73147283D01*
X116606817Y-73179498D01*
G37*
G04 #@! TD.AperFunction*
G04 #@! TA.AperFunction,NonConductor*
G36*
X123967012Y-78540797D02*
G01*
X123979735Y-78553521D01*
X124011147Y-78589784D01*
X124104235Y-78667067D01*
X124166288Y-78718584D01*
X124189349Y-78737730D01*
X124389322Y-78854584D01*
X124605694Y-78937209D01*
X124610760Y-78938240D01*
X124610761Y-78938240D01*
X124663846Y-78949040D01*
X124832656Y-78983385D01*
X124963324Y-78988176D01*
X125058949Y-78991683D01*
X125058953Y-78991683D01*
X125064113Y-78991872D01*
X125069233Y-78991216D01*
X125069235Y-78991216D01*
X125171720Y-78978087D01*
X125293847Y-78962442D01*
X125298795Y-78960957D01*
X125298802Y-78960956D01*
X125510747Y-78897369D01*
X125515690Y-78895886D01*
X125544768Y-78881641D01*
X125719049Y-78796262D01*
X125719052Y-78796260D01*
X125723684Y-78793991D01*
X125842333Y-78709360D01*
X125909404Y-78686088D01*
X125978412Y-78702771D01*
X126027446Y-78754115D01*
X126041499Y-78811940D01*
X126041499Y-80567413D01*
X126021497Y-80635534D01*
X125967841Y-80682027D01*
X125926481Y-80692934D01*
X125905801Y-80694743D01*
X125771913Y-80706457D01*
X125766600Y-80707881D01*
X125766598Y-80707881D01*
X125556067Y-80764293D01*
X125556065Y-80764294D01*
X125550757Y-80765716D01*
X125545776Y-80768039D01*
X125545775Y-80768039D01*
X125348238Y-80860151D01*
X125348233Y-80860154D01*
X125343251Y-80862477D01*
X125266970Y-80915890D01*
X125160211Y-80990643D01*
X125160208Y-80990645D01*
X125155700Y-80993802D01*
X124993802Y-81155700D01*
X124990645Y-81160208D01*
X124990643Y-81160211D01*
X124935902Y-81238389D01*
X124862477Y-81343251D01*
X124860154Y-81348233D01*
X124860151Y-81348238D01*
X124768039Y-81545775D01*
X124765716Y-81550757D01*
X124764294Y-81556065D01*
X124764293Y-81556067D01*
X124707881Y-81766598D01*
X124706457Y-81771913D01*
X124686502Y-82000000D01*
X124706457Y-82228087D01*
X124734539Y-82332888D01*
X124732849Y-82403865D01*
X124693055Y-82462661D01*
X124627791Y-82490609D01*
X124612832Y-82491500D01*
X124387168Y-82491500D01*
X124319047Y-82471498D01*
X124272554Y-82417842D01*
X124262450Y-82347568D01*
X124265461Y-82332888D01*
X124293543Y-82228087D01*
X124313498Y-82000000D01*
X124293543Y-81771913D01*
X124292119Y-81766598D01*
X124235707Y-81556067D01*
X124235706Y-81556065D01*
X124234284Y-81550757D01*
X124231961Y-81545775D01*
X124139849Y-81348238D01*
X124139846Y-81348233D01*
X124137523Y-81343251D01*
X124064098Y-81238389D01*
X124009357Y-81160211D01*
X124009355Y-81160208D01*
X124006198Y-81155700D01*
X123844300Y-80993802D01*
X123812229Y-80971345D01*
X123767901Y-80915890D01*
X123758500Y-80868133D01*
X123758500Y-78636021D01*
X123778502Y-78567900D01*
X123832158Y-78521407D01*
X123902432Y-78511303D01*
X123967012Y-78540797D01*
G37*
G04 #@! TD.AperFunction*
G04 #@! TA.AperFunction,NonConductor*
G36*
X83523190Y-75153657D02*
G01*
X83580026Y-75196204D01*
X83602075Y-75244012D01*
X83624644Y-75344156D01*
X83651346Y-75462642D01*
X83653288Y-75467424D01*
X83653289Y-75467428D01*
X83717793Y-75626281D01*
X83738484Y-75677237D01*
X83774619Y-75736204D01*
X83856109Y-75869183D01*
X83859501Y-75874719D01*
X84011147Y-76049784D01*
X84189349Y-76197730D01*
X84193819Y-76200342D01*
X84197511Y-76202500D01*
X84246232Y-76254140D01*
X84259301Y-76323924D01*
X84232566Y-76389694D01*
X84209589Y-76412045D01*
X84203304Y-76416764D01*
X84097765Y-76496005D01*
X84061655Y-76523117D01*
X84058083Y-76526855D01*
X83934315Y-76656371D01*
X83901639Y-76690564D01*
X83898725Y-76694836D01*
X83898724Y-76694837D01*
X83867684Y-76740340D01*
X83771119Y-76881899D01*
X83673602Y-77091981D01*
X83611707Y-77315169D01*
X83587095Y-77545469D01*
X83587392Y-77550622D01*
X83587392Y-77550625D01*
X83594003Y-77665285D01*
X83600427Y-77776697D01*
X83601564Y-77781743D01*
X83601565Y-77781749D01*
X83626903Y-77894181D01*
X83651346Y-78002642D01*
X83653288Y-78007424D01*
X83653289Y-78007428D01*
X83735799Y-78210625D01*
X83738484Y-78217237D01*
X83859501Y-78414719D01*
X84011147Y-78589784D01*
X84104235Y-78667067D01*
X84166288Y-78718584D01*
X84189349Y-78737730D01*
X84389322Y-78854584D01*
X84605694Y-78937209D01*
X84610760Y-78938240D01*
X84610761Y-78938240D01*
X84663846Y-78949040D01*
X84832656Y-78983385D01*
X84963324Y-78988176D01*
X85058949Y-78991683D01*
X85058953Y-78991683D01*
X85064113Y-78991872D01*
X85069233Y-78991216D01*
X85069235Y-78991216D01*
X85171720Y-78978087D01*
X85293847Y-78962442D01*
X85298795Y-78960957D01*
X85298802Y-78960956D01*
X85510747Y-78897369D01*
X85515690Y-78895886D01*
X85544768Y-78881641D01*
X85719049Y-78796262D01*
X85719052Y-78796260D01*
X85723684Y-78793991D01*
X85813303Y-78730067D01*
X85908033Y-78662497D01*
X85912243Y-78659494D01*
X85915029Y-78656718D01*
X85979642Y-78628172D01*
X86049785Y-78639146D01*
X86102861Y-78686300D01*
X86122017Y-78754663D01*
X86101173Y-78822531D01*
X86085122Y-78842197D01*
X84262990Y-80664329D01*
X84200678Y-80698355D01*
X84162913Y-80700755D01*
X84005475Y-80686981D01*
X84000000Y-80686502D01*
X83771913Y-80706457D01*
X83766600Y-80707881D01*
X83766598Y-80707881D01*
X83556067Y-80764293D01*
X83556065Y-80764294D01*
X83550757Y-80765716D01*
X83545776Y-80768039D01*
X83545775Y-80768039D01*
X83348238Y-80860151D01*
X83348233Y-80860154D01*
X83343251Y-80862477D01*
X83266970Y-80915890D01*
X83160211Y-80990643D01*
X83160208Y-80990645D01*
X83155700Y-80993802D01*
X82993802Y-81155700D01*
X82990645Y-81160208D01*
X82990643Y-81160211D01*
X82935902Y-81238389D01*
X82862477Y-81343251D01*
X82860154Y-81348233D01*
X82860151Y-81348238D01*
X82768039Y-81545775D01*
X82765716Y-81550757D01*
X82764294Y-81556065D01*
X82764293Y-81556067D01*
X82707881Y-81766598D01*
X82706457Y-81771913D01*
X82686502Y-82000000D01*
X82706457Y-82228087D01*
X82757958Y-82420290D01*
X82756268Y-82491265D01*
X82716474Y-82550061D01*
X82651210Y-82578009D01*
X82636251Y-82578900D01*
X82363749Y-82578900D01*
X82295628Y-82558898D01*
X82249135Y-82505242D01*
X82239031Y-82434968D01*
X82242040Y-82420296D01*
X82293543Y-82228087D01*
X82313498Y-82000000D01*
X82293543Y-81771913D01*
X82292119Y-81766598D01*
X82235707Y-81556067D01*
X82235706Y-81556065D01*
X82234284Y-81550757D01*
X82231961Y-81545775D01*
X82139849Y-81348238D01*
X82139846Y-81348233D01*
X82137523Y-81343251D01*
X82064098Y-81238389D01*
X82009357Y-81160211D01*
X82009355Y-81160208D01*
X82006198Y-81155700D01*
X81844300Y-80993802D01*
X81812229Y-80971345D01*
X81767901Y-80915890D01*
X81758500Y-80868133D01*
X81758500Y-76866371D01*
X81778502Y-76798250D01*
X81795405Y-76777276D01*
X83390063Y-75182618D01*
X83452375Y-75148592D01*
X83523190Y-75153657D01*
G37*
G04 #@! TD.AperFunction*
G04 #@! TA.AperFunction,NonConductor*
G36*
X85655568Y-81521279D02*
G01*
X85712404Y-81563826D01*
X85737215Y-81630346D01*
X85733243Y-81671946D01*
X85707881Y-81766598D01*
X85706457Y-81771913D01*
X85686502Y-82000000D01*
X85706457Y-82228087D01*
X85757958Y-82420290D01*
X85756268Y-82491265D01*
X85716474Y-82550061D01*
X85651210Y-82578009D01*
X85636251Y-82578900D01*
X85363749Y-82578900D01*
X85295628Y-82558898D01*
X85249135Y-82505242D01*
X85239031Y-82434968D01*
X85242040Y-82420296D01*
X85293543Y-82228087D01*
X85313498Y-82000000D01*
X85312251Y-81985750D01*
X85299245Y-81837087D01*
X85313234Y-81767482D01*
X85335671Y-81737010D01*
X85522441Y-81550240D01*
X85584753Y-81516214D01*
X85655568Y-81521279D01*
G37*
G04 #@! TD.AperFunction*
G04 #@! TA.AperFunction,NonConductor*
G36*
X76606817Y-78379498D02*
G01*
X78275212Y-80047893D01*
X78309238Y-80110205D01*
X78312117Y-80136988D01*
X78312117Y-82555246D01*
X78292115Y-82623367D01*
X78238459Y-82669860D01*
X78168185Y-82679964D01*
X78103605Y-82650470D01*
X78097022Y-82644341D01*
X77145405Y-81692724D01*
X77111379Y-81630412D01*
X77108500Y-81603629D01*
X77108500Y-79657069D01*
X77109933Y-79638118D01*
X77112099Y-79623883D01*
X77112099Y-79623881D01*
X77113199Y-79616651D01*
X77112392Y-79606722D01*
X77108915Y-79563982D01*
X77108500Y-79553767D01*
X77108500Y-79545707D01*
X77105999Y-79524252D01*
X77105211Y-79517493D01*
X77104778Y-79513118D01*
X77099454Y-79447661D01*
X77099453Y-79447658D01*
X77098860Y-79440363D01*
X77096604Y-79433399D01*
X77095413Y-79427440D01*
X77094029Y-79421585D01*
X77093182Y-79414319D01*
X77068265Y-79345673D01*
X77066848Y-79341545D01*
X77046607Y-79279064D01*
X77046606Y-79279062D01*
X77044351Y-79272101D01*
X77040555Y-79265846D01*
X77038049Y-79260372D01*
X77035330Y-79254942D01*
X77032833Y-79248063D01*
X76992809Y-79187016D01*
X76990472Y-79183312D01*
X76955509Y-79125693D01*
X76955505Y-79125688D01*
X76952595Y-79120892D01*
X76945197Y-79112516D01*
X76945223Y-79112493D01*
X76942574Y-79109503D01*
X76939866Y-79106264D01*
X76935856Y-79100148D01*
X76930549Y-79095121D01*
X76930546Y-79095117D01*
X76879617Y-79046872D01*
X76877175Y-79044494D01*
X76424176Y-78591495D01*
X76390150Y-78529183D01*
X76388349Y-78485953D01*
X76392800Y-78452146D01*
X76421523Y-78387219D01*
X76480788Y-78348128D01*
X76551780Y-78347283D01*
X76606817Y-78379498D01*
G37*
G04 #@! TD.AperFunction*
G04 #@! TA.AperFunction,NonConductor*
G36*
X114621750Y-85318502D02*
G01*
X114642724Y-85335405D01*
X117449760Y-88142441D01*
X117483786Y-88204753D01*
X117478721Y-88275568D01*
X117436174Y-88332404D01*
X117369654Y-88357215D01*
X117328054Y-88353243D01*
X117233402Y-88327881D01*
X117233400Y-88327881D01*
X117228087Y-88326457D01*
X117000000Y-88306502D01*
X116994525Y-88306981D01*
X116837087Y-88320755D01*
X116767482Y-88306766D01*
X116737010Y-88284329D01*
X115043770Y-86591089D01*
X115031384Y-86576677D01*
X115022851Y-86565082D01*
X115022846Y-86565077D01*
X115018508Y-86559182D01*
X115012930Y-86554443D01*
X115012927Y-86554440D01*
X114978232Y-86524965D01*
X114970716Y-86518035D01*
X114965021Y-86512340D01*
X114958880Y-86507482D01*
X114942749Y-86494719D01*
X114939345Y-86491928D01*
X114889297Y-86449409D01*
X114889295Y-86449408D01*
X114883715Y-86444667D01*
X114877199Y-86441339D01*
X114872150Y-86437972D01*
X114867021Y-86434805D01*
X114861284Y-86430266D01*
X114795125Y-86399345D01*
X114791225Y-86397439D01*
X114726192Y-86364231D01*
X114719084Y-86362492D01*
X114713441Y-86360393D01*
X114707678Y-86358476D01*
X114701050Y-86355378D01*
X114629583Y-86340513D01*
X114625299Y-86339543D01*
X114554390Y-86322192D01*
X114548788Y-86321844D01*
X114548785Y-86321844D01*
X114543236Y-86321500D01*
X114543238Y-86321464D01*
X114539245Y-86321225D01*
X114535053Y-86320851D01*
X114527885Y-86319360D01*
X114461675Y-86321151D01*
X114450479Y-86321454D01*
X114447072Y-86321500D01*
X109941867Y-86321500D01*
X109873746Y-86301498D01*
X109838655Y-86267772D01*
X109816198Y-86235700D01*
X109654300Y-86073802D01*
X109649792Y-86070645D01*
X109649789Y-86070643D01*
X109505867Y-85969868D01*
X109466749Y-85942477D01*
X109461767Y-85940154D01*
X109461762Y-85940151D01*
X109427543Y-85924195D01*
X109374258Y-85877278D01*
X109354797Y-85809001D01*
X109375339Y-85741041D01*
X109427543Y-85695805D01*
X109461762Y-85679849D01*
X109461767Y-85679846D01*
X109466749Y-85677523D01*
X109571611Y-85604098D01*
X109649789Y-85549357D01*
X109649792Y-85549355D01*
X109654300Y-85546198D01*
X109816198Y-85384300D01*
X109838655Y-85352229D01*
X109894110Y-85307901D01*
X109941867Y-85298500D01*
X114553629Y-85298500D01*
X114621750Y-85318502D01*
G37*
G04 #@! TD.AperFunction*
G04 #@! TA.AperFunction,NonConductor*
G36*
X114161750Y-87858502D02*
G01*
X114182724Y-87875405D01*
X114449760Y-88142441D01*
X114483786Y-88204753D01*
X114478721Y-88275568D01*
X114436174Y-88332404D01*
X114369654Y-88357215D01*
X114328054Y-88353243D01*
X114233402Y-88327881D01*
X114233400Y-88327881D01*
X114228087Y-88326457D01*
X114000000Y-88306502D01*
X113771913Y-88326457D01*
X113766600Y-88327881D01*
X113766598Y-88327881D01*
X113556067Y-88384293D01*
X113556065Y-88384294D01*
X113550757Y-88385716D01*
X113545776Y-88388039D01*
X113545775Y-88388039D01*
X113348238Y-88480151D01*
X113348233Y-88480154D01*
X113343251Y-88482477D01*
X113238389Y-88555902D01*
X113160211Y-88610643D01*
X113160208Y-88610645D01*
X113155700Y-88613802D01*
X112993802Y-88775700D01*
X112971345Y-88807771D01*
X112915890Y-88852099D01*
X112868133Y-88861500D01*
X109941867Y-88861500D01*
X109873746Y-88841498D01*
X109838655Y-88807772D01*
X109816198Y-88775700D01*
X109654300Y-88613802D01*
X109649792Y-88610645D01*
X109649789Y-88610643D01*
X109571611Y-88555902D01*
X109466749Y-88482477D01*
X109461767Y-88480154D01*
X109461762Y-88480151D01*
X109427543Y-88464195D01*
X109374258Y-88417278D01*
X109354797Y-88349001D01*
X109375339Y-88281041D01*
X109427543Y-88235805D01*
X109461762Y-88219849D01*
X109461767Y-88219846D01*
X109466749Y-88217523D01*
X109629042Y-88103884D01*
X109649789Y-88089357D01*
X109649792Y-88089355D01*
X109654300Y-88086198D01*
X109816198Y-87924300D01*
X109838655Y-87892229D01*
X109894110Y-87847901D01*
X109941867Y-87838500D01*
X114093629Y-87838500D01*
X114161750Y-87858502D01*
G37*
G04 #@! TD.AperFunction*
G04 #@! TA.AperFunction,NonConductor*
G36*
X99797339Y-86999508D02*
G01*
X99854175Y-87042055D01*
X99878828Y-87106583D01*
X99890755Y-87242914D01*
X99876766Y-87312519D01*
X99854329Y-87342990D01*
X97525788Y-89671531D01*
X97463476Y-89705557D01*
X97392661Y-89700492D01*
X97335825Y-89657945D01*
X97311172Y-89593417D01*
X97299245Y-89457086D01*
X97313234Y-89387481D01*
X97335671Y-89357010D01*
X99664212Y-87028469D01*
X99726524Y-86994443D01*
X99797339Y-86999508D01*
G37*
G04 #@! TD.AperFunction*
G04 #@! TA.AperFunction,NonConductor*
G36*
X82443519Y-89145999D02*
G01*
X82477559Y-89170240D01*
X82664329Y-89357010D01*
X82698355Y-89419322D01*
X82700755Y-89457086D01*
X82686502Y-89620000D01*
X82706457Y-89848087D01*
X82707881Y-89853400D01*
X82707881Y-89853402D01*
X82733243Y-89948054D01*
X82731553Y-90019030D01*
X82691759Y-90077826D01*
X82626495Y-90105774D01*
X82556481Y-90094001D01*
X82522441Y-90069760D01*
X82335671Y-89882990D01*
X82301645Y-89820678D01*
X82299245Y-89782913D01*
X82313019Y-89625475D01*
X82313498Y-89620000D01*
X82293543Y-89391913D01*
X82284191Y-89357010D01*
X82266757Y-89291946D01*
X82268447Y-89220970D01*
X82308241Y-89162174D01*
X82373505Y-89134226D01*
X82443519Y-89145999D01*
G37*
G04 #@! TD.AperFunction*
G04 #@! TA.AperFunction,NonConductor*
G36*
X111661750Y-73318502D02*
G01*
X111682724Y-73335405D01*
X113574017Y-75226698D01*
X113608043Y-75289010D01*
X113610209Y-75329182D01*
X113604392Y-75383617D01*
X113587095Y-75545469D01*
X113587392Y-75550622D01*
X113587392Y-75550625D01*
X113593067Y-75649041D01*
X113600427Y-75776697D01*
X113601564Y-75781743D01*
X113601565Y-75781749D01*
X113625146Y-75886384D01*
X113651346Y-76002642D01*
X113653288Y-76007424D01*
X113653289Y-76007428D01*
X113732500Y-76202500D01*
X113738484Y-76217237D01*
X113859501Y-76414719D01*
X114011147Y-76589784D01*
X114189349Y-76737730D01*
X114389322Y-76854584D01*
X114605694Y-76937209D01*
X114610760Y-76938240D01*
X114610761Y-76938240D01*
X114663846Y-76949040D01*
X114832656Y-76983385D01*
X114963324Y-76988176D01*
X115058949Y-76991683D01*
X115058953Y-76991683D01*
X115064113Y-76991872D01*
X115246594Y-76968495D01*
X115316703Y-76979679D01*
X115351698Y-77004379D01*
X116204595Y-77857276D01*
X116238621Y-77919588D01*
X116241500Y-77946371D01*
X116241500Y-80868133D01*
X116221498Y-80936254D01*
X116187772Y-80971345D01*
X116155700Y-80993802D01*
X115993802Y-81155700D01*
X115990645Y-81160208D01*
X115990643Y-81160211D01*
X115935902Y-81238389D01*
X115862477Y-81343251D01*
X115860154Y-81348233D01*
X115860151Y-81348238D01*
X115768039Y-81545775D01*
X115765716Y-81550757D01*
X115764294Y-81556065D01*
X115764293Y-81556067D01*
X115707881Y-81766598D01*
X115706457Y-81771913D01*
X115686502Y-82000000D01*
X115686981Y-82005475D01*
X115686981Y-82005486D01*
X115691343Y-82055340D01*
X115677355Y-82124944D01*
X115627956Y-82175937D01*
X115558830Y-82192128D01*
X115491925Y-82168376D01*
X115476728Y-82155417D01*
X115345178Y-82023867D01*
X115311152Y-81961555D01*
X115308752Y-81945754D01*
X115307761Y-81934425D01*
X115293543Y-81771913D01*
X115292119Y-81766598D01*
X115235707Y-81556067D01*
X115235706Y-81556065D01*
X115234284Y-81550757D01*
X115231961Y-81545775D01*
X115139849Y-81348238D01*
X115139846Y-81348233D01*
X115137523Y-81343251D01*
X115064098Y-81238389D01*
X115009357Y-81160211D01*
X115009355Y-81160208D01*
X115006198Y-81155700D01*
X114844300Y-80993802D01*
X114839792Y-80990645D01*
X114839789Y-80990643D01*
X114733030Y-80915890D01*
X114656749Y-80862477D01*
X114651767Y-80860154D01*
X114651762Y-80860151D01*
X114454225Y-80768039D01*
X114454224Y-80768039D01*
X114449243Y-80765716D01*
X114443935Y-80764294D01*
X114443933Y-80764293D01*
X114233402Y-80707881D01*
X114233400Y-80707881D01*
X114228087Y-80706457D01*
X114000000Y-80686502D01*
X113771913Y-80706457D01*
X113766600Y-80707881D01*
X113766598Y-80707881D01*
X113556067Y-80764293D01*
X113556065Y-80764294D01*
X113550757Y-80765716D01*
X113545776Y-80768039D01*
X113545775Y-80768039D01*
X113348238Y-80860151D01*
X113348233Y-80860154D01*
X113343251Y-80862477D01*
X113266970Y-80915890D01*
X113160211Y-80990643D01*
X113160208Y-80990645D01*
X113155700Y-80993802D01*
X112993802Y-81155700D01*
X112990645Y-81160208D01*
X112990643Y-81160211D01*
X112935902Y-81238389D01*
X112862477Y-81343251D01*
X112860154Y-81348233D01*
X112860151Y-81348238D01*
X112768039Y-81545775D01*
X112765716Y-81550757D01*
X112764294Y-81556065D01*
X112764293Y-81556067D01*
X112707881Y-81766598D01*
X112706457Y-81771913D01*
X112686502Y-82000000D01*
X112706457Y-82228087D01*
X112707880Y-82233399D01*
X112707881Y-82233402D01*
X112734539Y-82332888D01*
X112765716Y-82449243D01*
X112768039Y-82454224D01*
X112768039Y-82454225D01*
X112860151Y-82651762D01*
X112860154Y-82651767D01*
X112862477Y-82656749D01*
X112993802Y-82844300D01*
X113155700Y-83006198D01*
X113160208Y-83009355D01*
X113160211Y-83009357D01*
X113199054Y-83036555D01*
X113343251Y-83137523D01*
X113348233Y-83139846D01*
X113348238Y-83139849D01*
X113508499Y-83214579D01*
X113550757Y-83234284D01*
X113556065Y-83235706D01*
X113556067Y-83235707D01*
X113766598Y-83292119D01*
X113766600Y-83292119D01*
X113771913Y-83293543D01*
X114000000Y-83313498D01*
X114228087Y-83293543D01*
X114233400Y-83292119D01*
X114233402Y-83292119D01*
X114348211Y-83261356D01*
X114419187Y-83263046D01*
X114469917Y-83293968D01*
X114742354Y-83566405D01*
X114776380Y-83628717D01*
X114771315Y-83699532D01*
X114728768Y-83756368D01*
X114662248Y-83781179D01*
X114653259Y-83781500D01*
X109941867Y-83781500D01*
X109873746Y-83761498D01*
X109838655Y-83727772D01*
X109816198Y-83695700D01*
X109654300Y-83533802D01*
X109649792Y-83530645D01*
X109649789Y-83530643D01*
X109550271Y-83460960D01*
X109466749Y-83402477D01*
X109461767Y-83400154D01*
X109461762Y-83400151D01*
X109427543Y-83384195D01*
X109374258Y-83337278D01*
X109354797Y-83269001D01*
X109375339Y-83201041D01*
X109427543Y-83155805D01*
X109461762Y-83139849D01*
X109461767Y-83139846D01*
X109466749Y-83137523D01*
X109610946Y-83036555D01*
X109649789Y-83009357D01*
X109649792Y-83009355D01*
X109654300Y-83006198D01*
X109816198Y-82844300D01*
X109947523Y-82656749D01*
X109949846Y-82651767D01*
X109949849Y-82651762D01*
X110041961Y-82454225D01*
X110041961Y-82454224D01*
X110044284Y-82449243D01*
X110075462Y-82332888D01*
X110102119Y-82233402D01*
X110102120Y-82233399D01*
X110103543Y-82228087D01*
X110123498Y-82000000D01*
X110103543Y-81771913D01*
X110102119Y-81766598D01*
X110045707Y-81556067D01*
X110045706Y-81556065D01*
X110044284Y-81550757D01*
X110041961Y-81545775D01*
X109949849Y-81348238D01*
X109949846Y-81348233D01*
X109947523Y-81343251D01*
X109874098Y-81238389D01*
X109819357Y-81160211D01*
X109819355Y-81160208D01*
X109816198Y-81155700D01*
X109654300Y-80993802D01*
X109649792Y-80990645D01*
X109649789Y-80990643D01*
X109543030Y-80915890D01*
X109466749Y-80862477D01*
X109461767Y-80860154D01*
X109461762Y-80860151D01*
X109264225Y-80768039D01*
X109264224Y-80768039D01*
X109259243Y-80765716D01*
X109253935Y-80764294D01*
X109253933Y-80764293D01*
X109043402Y-80707881D01*
X109043400Y-80707881D01*
X109038087Y-80706457D01*
X108810000Y-80686502D01*
X108581913Y-80706457D01*
X108576600Y-80707881D01*
X108576598Y-80707881D01*
X108366067Y-80764293D01*
X108366065Y-80764294D01*
X108360757Y-80765716D01*
X108355776Y-80768039D01*
X108355775Y-80768039D01*
X108158238Y-80860151D01*
X108158233Y-80860154D01*
X108153251Y-80862477D01*
X108076970Y-80915890D01*
X107970211Y-80990643D01*
X107970208Y-80990645D01*
X107965700Y-80993802D01*
X107803802Y-81155700D01*
X107800645Y-81160208D01*
X107800643Y-81160211D01*
X107745902Y-81238389D01*
X107672477Y-81343251D01*
X107670154Y-81348233D01*
X107670151Y-81348238D01*
X107578039Y-81545775D01*
X107575716Y-81550757D01*
X107574294Y-81556065D01*
X107574293Y-81556067D01*
X107517881Y-81766598D01*
X107516457Y-81771913D01*
X107515978Y-81777389D01*
X107515977Y-81777394D01*
X107508532Y-81862492D01*
X107499866Y-81961555D01*
X107497749Y-81985750D01*
X107471886Y-82051869D01*
X107461323Y-82063864D01*
X106625168Y-82900019D01*
X106610135Y-82912860D01*
X106598747Y-82921134D01*
X106594327Y-82926043D01*
X106552984Y-82971959D01*
X106548443Y-82976744D01*
X106533928Y-82991259D01*
X106531852Y-82993823D01*
X106521006Y-83007216D01*
X106516722Y-83012231D01*
X106475381Y-83058145D01*
X106475377Y-83058150D01*
X106470960Y-83063056D01*
X106467660Y-83068772D01*
X106467657Y-83068776D01*
X106463927Y-83075237D01*
X106452727Y-83091533D01*
X106443871Y-83102470D01*
X106412815Y-83163421D01*
X106409669Y-83169215D01*
X106375473Y-83228444D01*
X106373432Y-83234726D01*
X106373431Y-83234728D01*
X106371125Y-83241826D01*
X106363560Y-83260092D01*
X106357171Y-83272630D01*
X106348652Y-83304425D01*
X106339469Y-83338695D01*
X106337600Y-83345003D01*
X106316458Y-83410072D01*
X106315768Y-83416637D01*
X106315766Y-83416646D01*
X106314985Y-83424075D01*
X106311383Y-83443509D01*
X106309453Y-83450714D01*
X106307743Y-83457097D01*
X106307398Y-83463688D01*
X106307397Y-83463692D01*
X106304164Y-83525384D01*
X106303647Y-83531958D01*
X106303044Y-83537699D01*
X106301500Y-83552390D01*
X106301500Y-83572926D01*
X106301327Y-83579520D01*
X106298749Y-83628717D01*
X106297748Y-83647810D01*
X106298780Y-83654325D01*
X106299949Y-83661705D01*
X106301500Y-83681417D01*
X106301500Y-85434239D01*
X106281498Y-85502360D01*
X106264595Y-85523334D01*
X102612867Y-89175062D01*
X102550555Y-89209088D01*
X102479740Y-89204023D01*
X102422904Y-89161476D01*
X102409577Y-89139217D01*
X102329849Y-88968238D01*
X102329846Y-88968233D01*
X102327523Y-88963251D01*
X102196198Y-88775700D01*
X102034300Y-88613802D01*
X102029792Y-88610645D01*
X102029789Y-88610643D01*
X101951611Y-88555902D01*
X101846749Y-88482477D01*
X101841767Y-88480154D01*
X101841762Y-88480151D01*
X101807543Y-88464195D01*
X101754258Y-88417278D01*
X101734797Y-88349001D01*
X101755339Y-88281041D01*
X101807543Y-88235805D01*
X101841762Y-88219849D01*
X101841767Y-88219846D01*
X101846749Y-88217523D01*
X102009042Y-88103884D01*
X102029789Y-88089357D01*
X102029792Y-88089355D01*
X102034300Y-88086198D01*
X102196198Y-87924300D01*
X102327523Y-87736749D01*
X102329846Y-87731767D01*
X102329849Y-87731762D01*
X102421961Y-87534225D01*
X102421961Y-87534224D01*
X102424284Y-87529243D01*
X102483543Y-87308087D01*
X102503498Y-87080000D01*
X102483543Y-86851913D01*
X102424284Y-86630757D01*
X102399066Y-86576677D01*
X102329849Y-86428238D01*
X102329846Y-86428233D01*
X102327523Y-86423251D01*
X102196198Y-86235700D01*
X102034300Y-86073802D01*
X102029792Y-86070645D01*
X102029789Y-86070643D01*
X101885867Y-85969868D01*
X101846749Y-85942477D01*
X101841767Y-85940154D01*
X101841762Y-85940151D01*
X101807543Y-85924195D01*
X101754258Y-85877278D01*
X101734797Y-85809001D01*
X101755339Y-85741041D01*
X101807543Y-85695805D01*
X101841762Y-85679849D01*
X101841767Y-85679846D01*
X101846749Y-85677523D01*
X101951611Y-85604098D01*
X102029789Y-85549357D01*
X102029792Y-85549355D01*
X102034300Y-85546198D01*
X102196198Y-85384300D01*
X102327523Y-85196749D01*
X102329846Y-85191767D01*
X102329849Y-85191762D01*
X102421961Y-84994225D01*
X102421961Y-84994224D01*
X102424284Y-84989243D01*
X102483543Y-84768087D01*
X102503498Y-84540000D01*
X102483543Y-84311913D01*
X102476491Y-84285595D01*
X102425707Y-84096067D01*
X102425706Y-84096065D01*
X102424284Y-84090757D01*
X102418269Y-84077857D01*
X102329849Y-83888238D01*
X102329846Y-83888233D01*
X102327523Y-83883251D01*
X102196198Y-83695700D01*
X102034300Y-83533802D01*
X102029789Y-83530643D01*
X102025576Y-83527108D01*
X102026527Y-83525974D01*
X101986529Y-83475929D01*
X101979224Y-83405310D01*
X102011258Y-83341951D01*
X102072462Y-83305970D01*
X102089517Y-83302918D01*
X102100316Y-83301745D01*
X102236705Y-83250615D01*
X102353261Y-83163261D01*
X102440615Y-83046705D01*
X102491745Y-82910316D01*
X102498500Y-82848134D01*
X102498500Y-81151866D01*
X102491745Y-81089684D01*
X102440615Y-80953295D01*
X102353261Y-80836739D01*
X102236705Y-80749385D01*
X102100316Y-80698255D01*
X102038134Y-80691500D01*
X100341866Y-80691500D01*
X100279684Y-80698255D01*
X100143295Y-80749385D01*
X100026739Y-80836739D01*
X99939385Y-80953295D01*
X99888255Y-81089684D01*
X99881500Y-81151866D01*
X99881500Y-82848134D01*
X99888255Y-82910316D01*
X99939385Y-83046705D01*
X100026739Y-83163261D01*
X100143295Y-83250615D01*
X100279684Y-83301745D01*
X100290474Y-83302917D01*
X100292606Y-83303803D01*
X100295222Y-83304425D01*
X100295121Y-83304848D01*
X100356035Y-83330155D01*
X100396463Y-83388517D01*
X100398922Y-83459471D01*
X100362629Y-83520490D01*
X100353969Y-83527489D01*
X100350207Y-83530646D01*
X100345700Y-83533802D01*
X100183802Y-83695700D01*
X100052477Y-83883251D01*
X100050154Y-83888233D01*
X100050151Y-83888238D01*
X99961731Y-84077857D01*
X99955716Y-84090757D01*
X99954294Y-84096065D01*
X99954293Y-84096067D01*
X99903509Y-84285595D01*
X99896457Y-84311913D01*
X99876502Y-84540000D01*
X99876981Y-84545475D01*
X99876981Y-84545477D01*
X99881905Y-84601765D01*
X99867915Y-84671369D01*
X99845479Y-84701840D01*
X96262990Y-88284329D01*
X96200678Y-88318355D01*
X96162913Y-88320755D01*
X96005475Y-88306981D01*
X96000000Y-88306502D01*
X95771913Y-88326457D01*
X95766600Y-88327881D01*
X95766598Y-88327881D01*
X95556067Y-88384293D01*
X95556065Y-88384294D01*
X95550757Y-88385716D01*
X95545776Y-88388039D01*
X95545775Y-88388039D01*
X95348238Y-88480151D01*
X95348233Y-88480154D01*
X95343251Y-88482477D01*
X95238389Y-88555902D01*
X95160211Y-88610643D01*
X95160208Y-88610645D01*
X95155700Y-88613802D01*
X94993802Y-88775700D01*
X94862477Y-88963251D01*
X94860154Y-88968233D01*
X94860151Y-88968238D01*
X94780423Y-89139217D01*
X94765716Y-89170757D01*
X94706457Y-89391913D01*
X94686502Y-89620000D01*
X94706457Y-89848087D01*
X94707881Y-89853400D01*
X94707881Y-89853402D01*
X94733243Y-89948054D01*
X94731553Y-90019030D01*
X94691759Y-90077826D01*
X94626495Y-90105774D01*
X94556481Y-90094001D01*
X94522441Y-90069760D01*
X94335671Y-89882990D01*
X94301645Y-89820678D01*
X94299245Y-89782913D01*
X94313019Y-89625475D01*
X94313498Y-89620000D01*
X94293543Y-89391913D01*
X94234284Y-89170757D01*
X94219577Y-89139217D01*
X94139849Y-88968238D01*
X94139846Y-88968233D01*
X94137523Y-88963251D01*
X94006198Y-88775700D01*
X93844300Y-88613802D01*
X93839792Y-88610645D01*
X93839789Y-88610643D01*
X93761611Y-88555902D01*
X93656749Y-88482477D01*
X93651767Y-88480154D01*
X93651762Y-88480151D01*
X93454225Y-88388039D01*
X93454224Y-88388039D01*
X93449243Y-88385716D01*
X93443935Y-88384294D01*
X93443933Y-88384293D01*
X93233402Y-88327881D01*
X93233400Y-88327881D01*
X93228087Y-88326457D01*
X93000000Y-88306502D01*
X92771913Y-88326457D01*
X92766600Y-88327881D01*
X92766598Y-88327881D01*
X92578367Y-88378318D01*
X92507391Y-88376628D01*
X92448595Y-88336834D01*
X92420647Y-88271570D01*
X92433539Y-88199310D01*
X92433818Y-88198763D01*
X92465769Y-88136192D01*
X92467508Y-88129083D01*
X92469604Y-88123449D01*
X92471523Y-88117679D01*
X92474622Y-88111050D01*
X92479135Y-88089357D01*
X92489490Y-88039571D01*
X92490461Y-88035282D01*
X92506473Y-87969844D01*
X92507808Y-87964390D01*
X92508500Y-87953236D01*
X92508535Y-87953238D01*
X92508775Y-87949266D01*
X92509152Y-87945045D01*
X92510641Y-87937885D01*
X92508546Y-87860458D01*
X92508500Y-87857050D01*
X92508500Y-83387168D01*
X92528502Y-83319047D01*
X92582158Y-83272554D01*
X92652432Y-83262450D01*
X92667105Y-83265460D01*
X92771913Y-83293543D01*
X93000000Y-83313498D01*
X93228087Y-83293543D01*
X93233400Y-83292119D01*
X93233402Y-83292119D01*
X93443933Y-83235707D01*
X93443935Y-83235706D01*
X93449243Y-83234284D01*
X93491501Y-83214579D01*
X93651762Y-83139849D01*
X93651767Y-83139846D01*
X93656749Y-83137523D01*
X93800946Y-83036555D01*
X93839789Y-83009357D01*
X93839792Y-83009355D01*
X93844300Y-83006198D01*
X94006198Y-82844300D01*
X94137523Y-82656749D01*
X94139846Y-82651767D01*
X94139849Y-82651762D01*
X94231961Y-82454225D01*
X94231961Y-82454224D01*
X94234284Y-82449243D01*
X94265462Y-82332888D01*
X94292119Y-82233402D01*
X94292120Y-82233399D01*
X94293543Y-82228087D01*
X94313498Y-82000000D01*
X94686502Y-82000000D01*
X94706457Y-82228087D01*
X94707880Y-82233399D01*
X94707881Y-82233402D01*
X94734539Y-82332888D01*
X94765716Y-82449243D01*
X94768039Y-82454224D01*
X94768039Y-82454225D01*
X94860151Y-82651762D01*
X94860154Y-82651767D01*
X94862477Y-82656749D01*
X94993802Y-82844300D01*
X95155700Y-83006198D01*
X95160208Y-83009355D01*
X95160211Y-83009357D01*
X95199054Y-83036555D01*
X95343251Y-83137523D01*
X95348233Y-83139846D01*
X95348238Y-83139849D01*
X95508499Y-83214579D01*
X95550757Y-83234284D01*
X95556065Y-83235706D01*
X95556067Y-83235707D01*
X95766598Y-83292119D01*
X95766600Y-83292119D01*
X95771913Y-83293543D01*
X96000000Y-83313498D01*
X96228087Y-83293543D01*
X96233400Y-83292119D01*
X96233402Y-83292119D01*
X96443933Y-83235707D01*
X96443935Y-83235706D01*
X96449243Y-83234284D01*
X96491501Y-83214579D01*
X96651762Y-83139849D01*
X96651767Y-83139846D01*
X96656749Y-83137523D01*
X96800946Y-83036555D01*
X96839789Y-83009357D01*
X96839792Y-83009355D01*
X96844300Y-83006198D01*
X97006198Y-82844300D01*
X97137523Y-82656749D01*
X97139846Y-82651767D01*
X97139849Y-82651762D01*
X97231961Y-82454225D01*
X97231961Y-82454224D01*
X97234284Y-82449243D01*
X97265462Y-82332888D01*
X97292119Y-82233402D01*
X97292120Y-82233399D01*
X97293543Y-82228087D01*
X97313498Y-82000000D01*
X97293543Y-81771913D01*
X97292119Y-81766598D01*
X97235707Y-81556067D01*
X97235706Y-81556065D01*
X97234284Y-81550757D01*
X97231961Y-81545775D01*
X97139849Y-81348238D01*
X97139846Y-81348233D01*
X97137523Y-81343251D01*
X97064098Y-81238389D01*
X97009357Y-81160211D01*
X97009355Y-81160208D01*
X97006198Y-81155700D01*
X96844300Y-80993802D01*
X96839792Y-80990645D01*
X96839789Y-80990643D01*
X96733030Y-80915890D01*
X96656749Y-80862477D01*
X96651767Y-80860154D01*
X96651762Y-80860151D01*
X96454225Y-80768039D01*
X96454224Y-80768039D01*
X96449243Y-80765716D01*
X96443935Y-80764294D01*
X96443933Y-80764293D01*
X96233402Y-80707881D01*
X96233400Y-80707881D01*
X96228087Y-80706457D01*
X96000000Y-80686502D01*
X95771913Y-80706457D01*
X95766600Y-80707881D01*
X95766598Y-80707881D01*
X95556067Y-80764293D01*
X95556065Y-80764294D01*
X95550757Y-80765716D01*
X95545776Y-80768039D01*
X95545775Y-80768039D01*
X95348238Y-80860151D01*
X95348233Y-80860154D01*
X95343251Y-80862477D01*
X95266970Y-80915890D01*
X95160211Y-80990643D01*
X95160208Y-80990645D01*
X95155700Y-80993802D01*
X94993802Y-81155700D01*
X94990645Y-81160208D01*
X94990643Y-81160211D01*
X94935902Y-81238389D01*
X94862477Y-81343251D01*
X94860154Y-81348233D01*
X94860151Y-81348238D01*
X94768039Y-81545775D01*
X94765716Y-81550757D01*
X94764294Y-81556065D01*
X94764293Y-81556067D01*
X94707881Y-81766598D01*
X94706457Y-81771913D01*
X94686502Y-82000000D01*
X94313498Y-82000000D01*
X94293543Y-81771913D01*
X94292119Y-81766598D01*
X94235707Y-81556067D01*
X94235706Y-81556065D01*
X94234284Y-81550757D01*
X94231961Y-81545775D01*
X94139849Y-81348238D01*
X94139846Y-81348233D01*
X94137523Y-81343251D01*
X94064098Y-81238389D01*
X94009357Y-81160211D01*
X94009355Y-81160208D01*
X94006198Y-81155700D01*
X93844300Y-80993802D01*
X93839792Y-80990645D01*
X93839789Y-80990643D01*
X93733030Y-80915890D01*
X93656749Y-80862477D01*
X93651767Y-80860154D01*
X93651762Y-80860151D01*
X93454225Y-80768039D01*
X93454224Y-80768039D01*
X93449243Y-80765716D01*
X93443935Y-80764294D01*
X93443933Y-80764293D01*
X93233402Y-80707881D01*
X93233400Y-80707881D01*
X93228087Y-80706457D01*
X93000000Y-80686502D01*
X92771913Y-80706457D01*
X92667110Y-80734539D01*
X92596135Y-80732849D01*
X92537339Y-80693055D01*
X92509391Y-80627791D01*
X92508500Y-80612832D01*
X92508500Y-78750000D01*
X101186502Y-78750000D01*
X101206457Y-78978087D01*
X101207881Y-78983400D01*
X101207881Y-78983402D01*
X101232350Y-79074719D01*
X101265716Y-79199243D01*
X101268039Y-79204224D01*
X101268039Y-79204225D01*
X101360151Y-79401762D01*
X101360154Y-79401767D01*
X101362477Y-79406749D01*
X101412285Y-79477882D01*
X101490577Y-79589694D01*
X101493802Y-79594300D01*
X101655700Y-79756198D01*
X101660208Y-79759355D01*
X101660211Y-79759357D01*
X101714354Y-79797268D01*
X101843251Y-79887523D01*
X101848233Y-79889846D01*
X101848238Y-79889849D01*
X102045775Y-79981961D01*
X102050757Y-79984284D01*
X102056065Y-79985706D01*
X102056067Y-79985707D01*
X102266598Y-80042119D01*
X102266600Y-80042119D01*
X102271913Y-80043543D01*
X102500000Y-80063498D01*
X102728087Y-80043543D01*
X102733400Y-80042119D01*
X102733402Y-80042119D01*
X102943933Y-79985707D01*
X102943935Y-79985706D01*
X102949243Y-79984284D01*
X102954225Y-79981961D01*
X103151762Y-79889849D01*
X103151767Y-79889846D01*
X103156749Y-79887523D01*
X103285646Y-79797268D01*
X103339789Y-79759357D01*
X103339792Y-79759355D01*
X103344300Y-79756198D01*
X103506198Y-79594300D01*
X103509424Y-79589694D01*
X103587715Y-79477882D01*
X103637523Y-79406749D01*
X103639846Y-79401767D01*
X103639849Y-79401762D01*
X103731961Y-79204225D01*
X103731961Y-79204224D01*
X103734284Y-79199243D01*
X103767651Y-79074719D01*
X103792119Y-78983402D01*
X103792119Y-78983400D01*
X103793543Y-78978087D01*
X103813498Y-78750000D01*
X106186502Y-78750000D01*
X106206457Y-78978087D01*
X106207881Y-78983400D01*
X106207881Y-78983402D01*
X106232350Y-79074719D01*
X106265716Y-79199243D01*
X106268039Y-79204224D01*
X106268039Y-79204225D01*
X106360151Y-79401762D01*
X106360154Y-79401767D01*
X106362477Y-79406749D01*
X106412285Y-79477882D01*
X106490577Y-79589694D01*
X106493802Y-79594300D01*
X106655700Y-79756198D01*
X106660208Y-79759355D01*
X106660211Y-79759357D01*
X106714354Y-79797268D01*
X106843251Y-79887523D01*
X106848233Y-79889846D01*
X106848238Y-79889849D01*
X107045775Y-79981961D01*
X107050757Y-79984284D01*
X107056065Y-79985706D01*
X107056067Y-79985707D01*
X107266598Y-80042119D01*
X107266600Y-80042119D01*
X107271913Y-80043543D01*
X107500000Y-80063498D01*
X107728087Y-80043543D01*
X107733400Y-80042119D01*
X107733402Y-80042119D01*
X107943933Y-79985707D01*
X107943935Y-79985706D01*
X107949243Y-79984284D01*
X107954225Y-79981961D01*
X108151762Y-79889849D01*
X108151767Y-79889846D01*
X108156749Y-79887523D01*
X108285646Y-79797268D01*
X108339789Y-79759357D01*
X108339792Y-79759355D01*
X108344300Y-79756198D01*
X108506198Y-79594300D01*
X108509424Y-79589694D01*
X108587715Y-79477882D01*
X108637523Y-79406749D01*
X108639846Y-79401767D01*
X108639849Y-79401762D01*
X108731961Y-79204225D01*
X108731961Y-79204224D01*
X108734284Y-79199243D01*
X108767651Y-79074719D01*
X108792119Y-78983402D01*
X108792119Y-78983400D01*
X108793543Y-78978087D01*
X108813498Y-78750000D01*
X108793543Y-78521913D01*
X108785476Y-78491808D01*
X108735707Y-78306067D01*
X108735706Y-78306065D01*
X108734284Y-78300757D01*
X108731961Y-78295775D01*
X108639849Y-78098238D01*
X108639846Y-78098233D01*
X108637523Y-78093251D01*
X108563108Y-77986976D01*
X108509357Y-77910211D01*
X108509355Y-77910208D01*
X108506198Y-77905700D01*
X108344300Y-77743802D01*
X108339792Y-77740645D01*
X108339789Y-77740643D01*
X108213706Y-77652359D01*
X108156749Y-77612477D01*
X108151767Y-77610154D01*
X108151762Y-77610151D01*
X107954225Y-77518039D01*
X107954224Y-77518039D01*
X107949243Y-77515716D01*
X107943935Y-77514294D01*
X107943933Y-77514293D01*
X107733402Y-77457881D01*
X107733400Y-77457881D01*
X107728087Y-77456457D01*
X107500000Y-77436502D01*
X107271913Y-77456457D01*
X107266600Y-77457881D01*
X107266598Y-77457881D01*
X107056067Y-77514293D01*
X107056065Y-77514294D01*
X107050757Y-77515716D01*
X107045776Y-77518039D01*
X107045775Y-77518039D01*
X106848238Y-77610151D01*
X106848233Y-77610154D01*
X106843251Y-77612477D01*
X106786294Y-77652359D01*
X106660211Y-77740643D01*
X106660208Y-77740645D01*
X106655700Y-77743802D01*
X106493802Y-77905700D01*
X106490645Y-77910208D01*
X106490643Y-77910211D01*
X106436892Y-77986976D01*
X106362477Y-78093251D01*
X106360154Y-78098233D01*
X106360151Y-78098238D01*
X106268039Y-78295775D01*
X106265716Y-78300757D01*
X106264294Y-78306065D01*
X106264293Y-78306067D01*
X106214524Y-78491808D01*
X106206457Y-78521913D01*
X106186502Y-78750000D01*
X103813498Y-78750000D01*
X103793543Y-78521913D01*
X103785476Y-78491808D01*
X103735707Y-78306067D01*
X103735706Y-78306065D01*
X103734284Y-78300757D01*
X103731961Y-78295775D01*
X103639849Y-78098238D01*
X103639846Y-78098233D01*
X103637523Y-78093251D01*
X103563108Y-77986976D01*
X103509357Y-77910211D01*
X103509355Y-77910208D01*
X103506198Y-77905700D01*
X103344300Y-77743802D01*
X103339792Y-77740645D01*
X103339789Y-77740643D01*
X103213706Y-77652359D01*
X103156749Y-77612477D01*
X103151767Y-77610154D01*
X103151762Y-77610151D01*
X102954225Y-77518039D01*
X102954224Y-77518039D01*
X102949243Y-77515716D01*
X102943935Y-77514294D01*
X102943933Y-77514293D01*
X102733402Y-77457881D01*
X102733400Y-77457881D01*
X102728087Y-77456457D01*
X102500000Y-77436502D01*
X102271913Y-77456457D01*
X102266600Y-77457881D01*
X102266598Y-77457881D01*
X102056067Y-77514293D01*
X102056065Y-77514294D01*
X102050757Y-77515716D01*
X102045776Y-77518039D01*
X102045775Y-77518039D01*
X101848238Y-77610151D01*
X101848233Y-77610154D01*
X101843251Y-77612477D01*
X101786294Y-77652359D01*
X101660211Y-77740643D01*
X101660208Y-77740645D01*
X101655700Y-77743802D01*
X101493802Y-77905700D01*
X101490645Y-77910208D01*
X101490643Y-77910211D01*
X101436892Y-77986976D01*
X101362477Y-78093251D01*
X101360154Y-78098233D01*
X101360151Y-78098238D01*
X101268039Y-78295775D01*
X101265716Y-78300757D01*
X101264294Y-78306065D01*
X101264293Y-78306067D01*
X101214524Y-78491808D01*
X101206457Y-78521913D01*
X101186502Y-78750000D01*
X92508500Y-78750000D01*
X92508500Y-76656371D01*
X92528502Y-76588250D01*
X92545405Y-76567276D01*
X93390063Y-75722618D01*
X93452375Y-75688592D01*
X93523190Y-75693657D01*
X93580026Y-75736204D01*
X93602075Y-75784012D01*
X93625146Y-75886384D01*
X93651346Y-76002642D01*
X93653288Y-76007424D01*
X93653289Y-76007428D01*
X93732500Y-76202500D01*
X93738484Y-76217237D01*
X93859501Y-76414719D01*
X94011147Y-76589784D01*
X94189349Y-76737730D01*
X94389322Y-76854584D01*
X94605694Y-76937209D01*
X94610760Y-76938240D01*
X94610761Y-76938240D01*
X94663846Y-76949040D01*
X94832656Y-76983385D01*
X94963324Y-76988176D01*
X95058949Y-76991683D01*
X95058953Y-76991683D01*
X95064113Y-76991872D01*
X95069233Y-76991216D01*
X95069235Y-76991216D01*
X95142270Y-76981860D01*
X95293847Y-76962442D01*
X95298795Y-76960957D01*
X95298802Y-76960956D01*
X95510747Y-76897369D01*
X95515690Y-76895886D01*
X95544241Y-76881899D01*
X95719049Y-76796262D01*
X95719052Y-76796260D01*
X95723684Y-76793991D01*
X95912243Y-76659494D01*
X96076303Y-76496005D01*
X96085372Y-76483385D01*
X96129606Y-76421826D01*
X96211458Y-76307917D01*
X96214768Y-76301221D01*
X96311784Y-76104922D01*
X96311785Y-76104920D01*
X96314078Y-76100280D01*
X96381408Y-75878671D01*
X96411640Y-75649041D01*
X96412733Y-75604327D01*
X96413245Y-75583365D01*
X96413245Y-75583361D01*
X96413327Y-75580000D01*
X96404072Y-75467428D01*
X96394773Y-75354318D01*
X96394772Y-75354312D01*
X96394349Y-75349167D01*
X96363587Y-75226698D01*
X96339184Y-75129544D01*
X96339183Y-75129540D01*
X96337925Y-75124533D01*
X96331189Y-75109041D01*
X96247630Y-74916868D01*
X96247628Y-74916865D01*
X96245570Y-74912131D01*
X96119764Y-74717665D01*
X96115720Y-74713220D01*
X96039580Y-74629544D01*
X95963887Y-74546358D01*
X95959836Y-74543159D01*
X95959832Y-74543155D01*
X95787077Y-74406722D01*
X95746014Y-74348805D01*
X95742782Y-74277882D01*
X95778407Y-74216470D01*
X95792001Y-74205261D01*
X95806615Y-74194837D01*
X95912243Y-74119494D01*
X96076303Y-73956005D01*
X96151777Y-73850973D01*
X96207770Y-73807326D01*
X96254098Y-73798500D01*
X103983588Y-73798500D01*
X104051709Y-73818502D01*
X104098202Y-73872158D01*
X104108306Y-73942432D01*
X104078812Y-74007012D01*
X104067243Y-74018722D01*
X104065788Y-74020014D01*
X104061655Y-74023117D01*
X104031561Y-74054609D01*
X103913966Y-74177665D01*
X103901639Y-74190564D01*
X103898725Y-74194836D01*
X103898724Y-74194837D01*
X103884192Y-74216140D01*
X103771119Y-74381899D01*
X103673602Y-74591981D01*
X103611707Y-74815169D01*
X103587095Y-75045469D01*
X103587392Y-75050622D01*
X103587392Y-75050625D01*
X103593041Y-75148592D01*
X103600427Y-75276697D01*
X103601564Y-75281743D01*
X103601565Y-75281749D01*
X103633741Y-75424523D01*
X103651346Y-75502642D01*
X103653288Y-75507424D01*
X103653289Y-75507428D01*
X103724030Y-75681641D01*
X103738484Y-75717237D01*
X103859501Y-75914719D01*
X104011147Y-76089784D01*
X104189349Y-76237730D01*
X104389322Y-76354584D01*
X104605694Y-76437209D01*
X104610760Y-76438240D01*
X104610761Y-76438240D01*
X104616620Y-76439432D01*
X104832656Y-76483385D01*
X104963324Y-76488176D01*
X105058949Y-76491683D01*
X105058953Y-76491683D01*
X105064113Y-76491872D01*
X105069233Y-76491216D01*
X105069235Y-76491216D01*
X105142270Y-76481860D01*
X105293847Y-76462442D01*
X105298795Y-76460957D01*
X105298802Y-76460956D01*
X105510747Y-76397369D01*
X105515690Y-76395886D01*
X105520324Y-76393616D01*
X105719049Y-76296262D01*
X105719052Y-76296260D01*
X105723684Y-76293991D01*
X105912243Y-76159494D01*
X106076303Y-75996005D01*
X106083735Y-75985663D01*
X106114318Y-75943101D01*
X106211458Y-75807917D01*
X106258641Y-75712450D01*
X106311784Y-75604922D01*
X106311785Y-75604920D01*
X106314078Y-75600280D01*
X106381408Y-75378671D01*
X106411640Y-75149041D01*
X106411722Y-75145691D01*
X106413245Y-75083365D01*
X106413245Y-75083361D01*
X106413327Y-75080000D01*
X106406777Y-75000336D01*
X106394773Y-74854318D01*
X106394772Y-74854312D01*
X106394349Y-74849167D01*
X106337925Y-74624533D01*
X106335866Y-74619797D01*
X106247630Y-74416868D01*
X106247628Y-74416865D01*
X106245570Y-74412131D01*
X106119764Y-74217665D01*
X106086857Y-74181500D01*
X106058523Y-74150362D01*
X105963887Y-74046358D01*
X105959836Y-74043159D01*
X105959832Y-74043155D01*
X105787077Y-73906722D01*
X105746014Y-73848805D01*
X105742782Y-73777882D01*
X105778407Y-73716470D01*
X105792001Y-73705261D01*
X105823014Y-73683140D01*
X105912243Y-73619494D01*
X106076303Y-73456005D01*
X106151777Y-73350973D01*
X106207770Y-73307326D01*
X106254098Y-73298500D01*
X111593629Y-73298500D01*
X111661750Y-73318502D01*
G37*
G04 #@! TD.AperFunction*
G04 #@! TA.AperFunction,NonConductor*
G36*
X74814894Y-98936134D02*
G01*
X74969309Y-98986903D01*
X75003722Y-98990885D01*
X75029372Y-98993853D01*
X75094742Y-99021553D01*
X75134760Y-99080197D01*
X75136596Y-99151629D01*
X75128709Y-99181063D01*
X75128708Y-99181070D01*
X75127286Y-99186376D01*
X75107911Y-99407839D01*
X75127286Y-99629302D01*
X75128710Y-99634617D01*
X75129480Y-99638982D01*
X75121611Y-99709541D01*
X75076844Y-99764646D01*
X75009393Y-99786800D01*
X74940672Y-99768969D01*
X74892499Y-99716816D01*
X74887607Y-99705610D01*
X74657754Y-99100577D01*
X74652260Y-99029794D01*
X74685907Y-98967276D01*
X74748012Y-98932874D01*
X74814894Y-98936134D01*
G37*
G04 #@! TD.AperFunction*
G04 #@! TA.AperFunction,NonConductor*
G36*
X75226347Y-100010132D02*
G01*
X75286244Y-100056181D01*
X75370817Y-100176964D01*
X75406287Y-100227620D01*
X75563483Y-100384816D01*
X75567991Y-100387973D01*
X75567994Y-100387975D01*
X75643759Y-100441026D01*
X75745587Y-100512327D01*
X75750569Y-100514650D01*
X75750574Y-100514653D01*
X75884555Y-100577129D01*
X75937840Y-100624046D01*
X75957301Y-100692324D01*
X75945500Y-100744574D01*
X75901560Y-100838804D01*
X75844022Y-101053537D01*
X75824647Y-101275000D01*
X75844022Y-101496463D01*
X75858860Y-101551838D01*
X75861222Y-101560654D01*
X75859532Y-101631630D01*
X75819738Y-101690426D01*
X75754474Y-101718374D01*
X75684460Y-101706601D01*
X75631926Y-101658844D01*
X75621728Y-101638012D01*
X75065244Y-100173198D01*
X75059750Y-100102416D01*
X75093397Y-100039898D01*
X75155502Y-100005496D01*
X75226347Y-100010132D01*
G37*
G04 #@! TD.AperFunction*
G04 #@! TA.AperFunction,NonConductor*
G36*
X75923404Y-101844971D02*
G01*
X75980497Y-101887172D01*
X75990108Y-101903114D01*
X75990436Y-101902925D01*
X75993187Y-101907689D01*
X75995512Y-101912676D01*
X76123023Y-102094781D01*
X76280219Y-102251977D01*
X76284727Y-102255134D01*
X76284730Y-102255136D01*
X76345490Y-102297681D01*
X76389819Y-102353139D01*
X76397127Y-102423758D01*
X76379898Y-102467942D01*
X76362957Y-102494897D01*
X76323175Y-102635016D01*
X76324318Y-102780670D01*
X76326338Y-102788315D01*
X76327200Y-102794753D01*
X76316415Y-102864925D01*
X76269403Y-102918128D01*
X76201092Y-102937468D01*
X76133168Y-102916806D01*
X76084527Y-102856221D01*
X75853493Y-102248080D01*
X75762301Y-102008037D01*
X75756807Y-101937255D01*
X75790454Y-101874737D01*
X75852559Y-101840335D01*
X75923404Y-101844971D01*
G37*
G04 #@! TD.AperFunction*
G04 #@! TA.AperFunction,NonConductor*
G36*
X105007145Y-64771499D02*
G01*
X105878986Y-64771865D01*
X105881705Y-64771897D01*
X107639178Y-64811606D01*
X107641900Y-64811698D01*
X108572790Y-64853394D01*
X109398027Y-64890358D01*
X109400816Y-64890514D01*
X110196429Y-64943846D01*
X111154774Y-65008087D01*
X111157482Y-65008299D01*
X112461909Y-65124837D01*
X112908360Y-65164723D01*
X112911140Y-65165002D01*
X113324298Y-65211166D01*
X114658183Y-65360209D01*
X114660872Y-65360540D01*
X116403188Y-65594434D01*
X116405878Y-65594826D01*
X117648589Y-65789789D01*
X118142478Y-65867273D01*
X118145232Y-65867736D01*
X119875409Y-66178621D01*
X119878153Y-66179146D01*
X121600941Y-66528297D01*
X121603673Y-66528882D01*
X123318326Y-66916148D01*
X123321043Y-66916793D01*
X124481178Y-67205989D01*
X125026741Y-67341987D01*
X125029407Y-67342683D01*
X125872547Y-67572829D01*
X126725196Y-67805570D01*
X126727883Y-67806335D01*
X128413040Y-68306716D01*
X128415709Y-68307541D01*
X130089331Y-68845148D01*
X130091981Y-68846032D01*
X131753246Y-69420600D01*
X131755876Y-69421542D01*
X133404064Y-70032823D01*
X133406672Y-70033824D01*
X135040840Y-70681469D01*
X135043425Y-70682527D01*
X136662834Y-71366241D01*
X136665396Y-71367356D01*
X138269278Y-72086816D01*
X138271813Y-72087987D01*
X138815688Y-72346587D01*
X139819225Y-72823746D01*
X139859353Y-72842826D01*
X139861847Y-72844046D01*
X141391114Y-73613199D01*
X141408887Y-73624067D01*
X141418299Y-73630952D01*
X141418304Y-73630954D01*
X141425547Y-73636253D01*
X141433519Y-73639137D01*
X141435881Y-73640337D01*
X141442906Y-73645078D01*
X141451458Y-73647809D01*
X141451459Y-73647810D01*
X141461708Y-73651084D01*
X141482353Y-73659768D01*
X141568230Y-73705261D01*
X141750694Y-73801921D01*
X141761076Y-73808076D01*
X141964761Y-73942432D01*
X142039330Y-73991620D01*
X142049088Y-73998751D01*
X142308473Y-74208107D01*
X142317500Y-74216138D01*
X142371347Y-74268879D01*
X142555625Y-74449373D01*
X142563844Y-74458234D01*
X142778538Y-74713220D01*
X142785869Y-74722827D01*
X142963977Y-74981018D01*
X142975139Y-74997199D01*
X142981514Y-75007459D01*
X143079011Y-75182618D01*
X143143633Y-75298715D01*
X143148998Y-75309545D01*
X143282465Y-75614988D01*
X143286767Y-75626281D01*
X143390356Y-75943101D01*
X143393557Y-75954755D01*
X143429590Y-76115850D01*
X143463105Y-76265685D01*
X143466317Y-76280047D01*
X143468386Y-76291954D01*
X143509646Y-76622717D01*
X143510565Y-76634768D01*
X143515048Y-76793991D01*
X143519814Y-76963261D01*
X143519946Y-76967965D01*
X143519706Y-76980044D01*
X143509894Y-77124533D01*
X143497122Y-77312603D01*
X143495726Y-77324608D01*
X143441384Y-77653470D01*
X143438845Y-77665285D01*
X143417053Y-77747301D01*
X143353240Y-77987460D01*
X143349587Y-77998952D01*
X143246484Y-78276511D01*
X143235252Y-78299360D01*
X143233819Y-78301655D01*
X143233817Y-78301659D01*
X143229065Y-78309271D01*
X143226640Y-78317913D01*
X143216923Y-78352534D01*
X143213402Y-78363219D01*
X125172915Y-125868917D01*
X125168032Y-125880109D01*
X125167584Y-125881013D01*
X125162501Y-125888409D01*
X125159698Y-125896935D01*
X125156109Y-125907852D01*
X125147462Y-125928029D01*
X124974997Y-126249751D01*
X124969280Y-126259365D01*
X124752281Y-126589936D01*
X124745736Y-126599003D01*
X124600054Y-126783003D01*
X124500274Y-126909027D01*
X124492948Y-126917480D01*
X124220961Y-127204509D01*
X124212914Y-127212279D01*
X123916540Y-127474056D01*
X123907836Y-127481081D01*
X123593455Y-127712568D01*
X123589421Y-127715538D01*
X123580133Y-127721761D01*
X123247093Y-127924068D01*
X123242169Y-127927059D01*
X123232361Y-127932436D01*
X122877534Y-128106946D01*
X122867287Y-128111433D01*
X122498358Y-128253795D01*
X122487754Y-128257354D01*
X122107682Y-128366427D01*
X122096815Y-128369030D01*
X121708529Y-128443973D01*
X121697479Y-128445601D01*
X121374669Y-128478596D01*
X121304094Y-128485810D01*
X121292927Y-128486452D01*
X121041709Y-128489731D01*
X120935040Y-128491124D01*
X120910122Y-128488966D01*
X120898373Y-128486758D01*
X120889443Y-128487642D01*
X120856666Y-128490887D01*
X120844253Y-128491500D01*
X89164182Y-128491500D01*
X89148414Y-128490509D01*
X89125686Y-128487642D01*
X89124291Y-128487466D01*
X89124290Y-128487466D01*
X89115388Y-128486343D01*
X89104423Y-128488101D01*
X89095137Y-128489590D01*
X89073268Y-128491164D01*
X88739855Y-128486083D01*
X88708285Y-128485602D01*
X88697165Y-128484940D01*
X88682284Y-128483392D01*
X88303838Y-128444012D01*
X88292832Y-128442373D01*
X88098732Y-128404616D01*
X87904638Y-128366859D01*
X87893808Y-128364250D01*
X87513827Y-128254752D01*
X87503269Y-128251197D01*
X87134446Y-128108564D01*
X87124243Y-128104091D01*
X86769436Y-127929426D01*
X86759669Y-127924068D01*
X86421709Y-127718766D01*
X86412453Y-127712568D01*
X86225009Y-127574651D01*
X86093918Y-127478197D01*
X86085251Y-127471208D01*
X85788671Y-127209625D01*
X85780660Y-127201903D01*
X85508344Y-126915147D01*
X85501039Y-126906739D01*
X85255115Y-126597046D01*
X85248580Y-126588025D01*
X85030977Y-126257832D01*
X85025264Y-126248268D01*
X84889103Y-125995582D01*
X84855602Y-125933410D01*
X84845991Y-125910351D01*
X84842423Y-125898634D01*
X84837503Y-125891126D01*
X84833698Y-125882997D01*
X84833921Y-125882893D01*
X84827889Y-125871062D01*
X84221543Y-124275000D01*
X86236540Y-124275000D01*
X86256359Y-124590020D01*
X86315505Y-124900072D01*
X86413044Y-125200266D01*
X86414731Y-125203852D01*
X86414733Y-125203856D01*
X86545750Y-125482283D01*
X86545754Y-125482290D01*
X86547438Y-125485869D01*
X86716568Y-125752375D01*
X86917767Y-125995582D01*
X87147860Y-126211654D01*
X87403221Y-126397184D01*
X87679821Y-126549247D01*
X87683490Y-126550700D01*
X87683495Y-126550702D01*
X87969628Y-126663990D01*
X87973298Y-126665443D01*
X88279025Y-126743940D01*
X88592179Y-126783500D01*
X88907821Y-126783500D01*
X89220975Y-126743940D01*
X89526702Y-126665443D01*
X89530372Y-126663990D01*
X89816505Y-126550702D01*
X89816510Y-126550700D01*
X89820179Y-126549247D01*
X90096779Y-126397184D01*
X90352140Y-126211654D01*
X90582233Y-125995582D01*
X90783432Y-125752375D01*
X90952562Y-125485869D01*
X90954246Y-125482290D01*
X90954250Y-125482283D01*
X91085267Y-125203856D01*
X91085269Y-125203852D01*
X91086956Y-125200266D01*
X91184495Y-124900072D01*
X91243641Y-124590020D01*
X91263460Y-124275000D01*
X91243641Y-123959980D01*
X91184495Y-123649928D01*
X91086956Y-123349734D01*
X91076840Y-123328236D01*
X90969601Y-123100339D01*
X96716091Y-123100339D01*
X96751747Y-123333349D01*
X96824980Y-123557407D01*
X96933825Y-123766496D01*
X96936928Y-123770629D01*
X96936930Y-123770632D01*
X96959026Y-123800061D01*
X97075358Y-123955000D01*
X97245777Y-124117857D01*
X97440508Y-124250693D01*
X97445192Y-124252867D01*
X97445195Y-124252869D01*
X97649628Y-124347764D01*
X97649633Y-124347766D01*
X97654319Y-124349941D01*
X97881468Y-124412935D01*
X97886605Y-124413484D01*
X98070563Y-124433144D01*
X98070571Y-124433144D01*
X98073898Y-124433500D01*
X99408757Y-124433500D01*
X99411330Y-124433288D01*
X99411341Y-124433288D01*
X99578779Y-124419522D01*
X99578785Y-124419521D01*
X99583930Y-124419098D01*
X99812551Y-124361673D01*
X100028723Y-124267678D01*
X100226641Y-124139640D01*
X100250581Y-124117857D01*
X100397167Y-123984473D01*
X100397168Y-123984471D01*
X100400989Y-123980995D01*
X100404188Y-123976944D01*
X100404192Y-123976940D01*
X100543883Y-123800061D01*
X100543885Y-123800057D01*
X100547085Y-123796006D01*
X100661005Y-123589639D01*
X100670794Y-123561998D01*
X100737965Y-123372311D01*
X100737966Y-123372307D01*
X100739691Y-123367436D01*
X100743484Y-123346144D01*
X100780123Y-123140456D01*
X100780124Y-123140450D01*
X100781029Y-123135367D01*
X100781457Y-123100339D01*
X109216091Y-123100339D01*
X109251747Y-123333349D01*
X109324980Y-123557407D01*
X109433825Y-123766496D01*
X109436928Y-123770629D01*
X109436930Y-123770632D01*
X109459026Y-123800061D01*
X109575358Y-123955000D01*
X109745777Y-124117857D01*
X109940508Y-124250693D01*
X109945192Y-124252867D01*
X109945195Y-124252869D01*
X110149628Y-124347764D01*
X110149633Y-124347766D01*
X110154319Y-124349941D01*
X110381468Y-124412935D01*
X110386605Y-124413484D01*
X110570563Y-124433144D01*
X110570571Y-124433144D01*
X110573898Y-124433500D01*
X111908757Y-124433500D01*
X111911330Y-124433288D01*
X111911341Y-124433288D01*
X112078779Y-124419522D01*
X112078785Y-124419521D01*
X112083930Y-124419098D01*
X112312551Y-124361673D01*
X112528723Y-124267678D01*
X112726641Y-124139640D01*
X112750581Y-124117857D01*
X112897167Y-123984473D01*
X112897168Y-123984471D01*
X112900989Y-123980995D01*
X112904188Y-123976944D01*
X112904192Y-123976940D01*
X113043883Y-123800061D01*
X113043885Y-123800057D01*
X113047085Y-123796006D01*
X113161005Y-123589639D01*
X113170794Y-123561998D01*
X113237965Y-123372311D01*
X113237966Y-123372307D01*
X113239691Y-123367436D01*
X113243484Y-123346144D01*
X113280123Y-123140456D01*
X113280124Y-123140450D01*
X113281029Y-123135367D01*
X113283909Y-122899661D01*
X113248253Y-122666651D01*
X113175020Y-122442593D01*
X113120752Y-122338346D01*
X113068564Y-122238093D01*
X113068563Y-122238092D01*
X113066175Y-122233504D01*
X113047415Y-122208517D01*
X112927747Y-122049135D01*
X112927745Y-122049132D01*
X112924642Y-122045000D01*
X112754223Y-121882143D01*
X112559492Y-121749307D01*
X112554808Y-121747133D01*
X112554805Y-121747131D01*
X112350372Y-121652236D01*
X112350367Y-121652234D01*
X112345681Y-121650059D01*
X112118532Y-121587065D01*
X112113395Y-121586516D01*
X111929437Y-121566856D01*
X111929429Y-121566856D01*
X111926102Y-121566500D01*
X110591243Y-121566500D01*
X110588670Y-121566712D01*
X110588659Y-121566712D01*
X110421221Y-121580478D01*
X110421215Y-121580479D01*
X110416070Y-121580902D01*
X110187449Y-121638327D01*
X109971277Y-121732322D01*
X109773359Y-121860360D01*
X109769536Y-121863839D01*
X109769533Y-121863841D01*
X109616974Y-122002660D01*
X109599011Y-122019005D01*
X109595812Y-122023056D01*
X109595808Y-122023060D01*
X109493333Y-122152816D01*
X109452915Y-122203994D01*
X109338995Y-122410361D01*
X109337271Y-122415230D01*
X109337269Y-122415234D01*
X109288943Y-122551703D01*
X109260309Y-122632564D01*
X109259402Y-122637657D01*
X109259401Y-122637660D01*
X109224609Y-122832983D01*
X109218971Y-122864633D01*
X109218543Y-122899661D01*
X109216490Y-123067717D01*
X109216091Y-123100339D01*
X100781457Y-123100339D01*
X100783909Y-122899661D01*
X100748253Y-122666651D01*
X100675020Y-122442593D01*
X100620752Y-122338346D01*
X100568564Y-122238093D01*
X100568563Y-122238092D01*
X100566175Y-122233504D01*
X100547415Y-122208517D01*
X100427747Y-122049135D01*
X100427745Y-122049132D01*
X100424642Y-122045000D01*
X100254223Y-121882143D01*
X100059492Y-121749307D01*
X100054808Y-121747133D01*
X100054805Y-121747131D01*
X99850372Y-121652236D01*
X99850367Y-121652234D01*
X99845681Y-121650059D01*
X99618532Y-121587065D01*
X99613395Y-121586516D01*
X99429437Y-121566856D01*
X99429429Y-121566856D01*
X99426102Y-121566500D01*
X98091243Y-121566500D01*
X98088670Y-121566712D01*
X98088659Y-121566712D01*
X97921221Y-121580478D01*
X97921215Y-121580479D01*
X97916070Y-121580902D01*
X97687449Y-121638327D01*
X97471277Y-121732322D01*
X97273359Y-121860360D01*
X97269536Y-121863839D01*
X97269533Y-121863841D01*
X97116974Y-122002660D01*
X97099011Y-122019005D01*
X97095812Y-122023056D01*
X97095808Y-122023060D01*
X96993333Y-122152816D01*
X96952915Y-122203994D01*
X96838995Y-122410361D01*
X96837271Y-122415230D01*
X96837269Y-122415234D01*
X96788943Y-122551703D01*
X96760309Y-122632564D01*
X96759402Y-122637657D01*
X96759401Y-122637660D01*
X96724609Y-122832983D01*
X96718971Y-122864633D01*
X96718543Y-122899661D01*
X96716490Y-123067717D01*
X96716091Y-123100339D01*
X90969601Y-123100339D01*
X90954250Y-123067717D01*
X90954246Y-123067710D01*
X90952562Y-123064131D01*
X90783432Y-122797625D01*
X90582233Y-122554418D01*
X90352140Y-122338346D01*
X90096779Y-122152816D01*
X89820179Y-122000753D01*
X89816510Y-121999300D01*
X89816505Y-121999298D01*
X89530372Y-121886010D01*
X89530371Y-121886010D01*
X89526702Y-121884557D01*
X89220975Y-121806060D01*
X88907821Y-121766500D01*
X88592179Y-121766500D01*
X88279025Y-121806060D01*
X87973298Y-121884557D01*
X87969629Y-121886010D01*
X87969628Y-121886010D01*
X87683495Y-121999298D01*
X87683490Y-121999300D01*
X87679821Y-122000753D01*
X87403221Y-122152816D01*
X87147860Y-122338346D01*
X86917767Y-122554418D01*
X86716568Y-122797625D01*
X86547438Y-123064131D01*
X86545754Y-123067710D01*
X86545750Y-123067717D01*
X86423160Y-123328236D01*
X86413044Y-123349734D01*
X86315505Y-123649928D01*
X86256359Y-123959980D01*
X86238833Y-124238559D01*
X86236540Y-124275000D01*
X84221543Y-124275000D01*
X81875783Y-118100339D01*
X96716091Y-118100339D01*
X96751747Y-118333349D01*
X96824980Y-118557407D01*
X96933825Y-118766496D01*
X96936928Y-118770629D01*
X96936930Y-118770632D01*
X96959026Y-118800061D01*
X97075358Y-118955000D01*
X97245777Y-119117857D01*
X97440508Y-119250693D01*
X97445192Y-119252867D01*
X97445195Y-119252869D01*
X97649628Y-119347764D01*
X97649633Y-119347766D01*
X97654319Y-119349941D01*
X97881468Y-119412935D01*
X97886605Y-119413484D01*
X98070563Y-119433144D01*
X98070571Y-119433144D01*
X98073898Y-119433500D01*
X99408757Y-119433500D01*
X99411330Y-119433288D01*
X99411341Y-119433288D01*
X99578779Y-119419522D01*
X99578785Y-119419521D01*
X99583930Y-119419098D01*
X99812551Y-119361673D01*
X100028723Y-119267678D01*
X100226641Y-119139640D01*
X100250581Y-119117857D01*
X100397167Y-118984473D01*
X100397168Y-118984471D01*
X100400989Y-118980995D01*
X100404188Y-118976944D01*
X100404192Y-118976940D01*
X100543883Y-118800061D01*
X100543885Y-118800057D01*
X100547085Y-118796006D01*
X100661005Y-118589639D01*
X100670794Y-118561998D01*
X100737965Y-118372311D01*
X100737966Y-118372307D01*
X100739691Y-118367436D01*
X100740599Y-118362340D01*
X100780123Y-118140456D01*
X100780124Y-118140450D01*
X100781029Y-118135367D01*
X100781457Y-118100339D01*
X109216091Y-118100339D01*
X109251747Y-118333349D01*
X109324980Y-118557407D01*
X109433825Y-118766496D01*
X109436928Y-118770629D01*
X109436930Y-118770632D01*
X109459026Y-118800061D01*
X109575358Y-118955000D01*
X109745777Y-119117857D01*
X109940508Y-119250693D01*
X109945192Y-119252867D01*
X109945195Y-119252869D01*
X110149628Y-119347764D01*
X110149633Y-119347766D01*
X110154319Y-119349941D01*
X110381468Y-119412935D01*
X110386605Y-119413484D01*
X110570563Y-119433144D01*
X110570571Y-119433144D01*
X110573898Y-119433500D01*
X111908757Y-119433500D01*
X111911330Y-119433288D01*
X111911341Y-119433288D01*
X112078779Y-119419522D01*
X112078785Y-119419521D01*
X112083930Y-119419098D01*
X112312551Y-119361673D01*
X112528723Y-119267678D01*
X112726641Y-119139640D01*
X112750581Y-119117857D01*
X112897167Y-118984473D01*
X112897168Y-118984471D01*
X112900989Y-118980995D01*
X112904188Y-118976944D01*
X112904192Y-118976940D01*
X113043883Y-118800061D01*
X113043885Y-118800057D01*
X113047085Y-118796006D01*
X113161005Y-118589639D01*
X113170794Y-118561998D01*
X113237965Y-118372311D01*
X113237966Y-118372307D01*
X113239691Y-118367436D01*
X113240599Y-118362340D01*
X113280123Y-118140456D01*
X113280124Y-118140450D01*
X113281029Y-118135367D01*
X113283909Y-117899661D01*
X113248253Y-117666651D01*
X113175020Y-117442593D01*
X113066175Y-117233504D01*
X113047415Y-117208517D01*
X112927747Y-117049135D01*
X112927745Y-117049132D01*
X112924642Y-117045000D01*
X112754223Y-116882143D01*
X112559492Y-116749307D01*
X112554808Y-116747133D01*
X112554805Y-116747131D01*
X112350372Y-116652236D01*
X112350367Y-116652234D01*
X112345681Y-116650059D01*
X112118532Y-116587065D01*
X112113395Y-116586516D01*
X111929437Y-116566856D01*
X111929429Y-116566856D01*
X111926102Y-116566500D01*
X110591243Y-116566500D01*
X110588670Y-116566712D01*
X110588659Y-116566712D01*
X110421221Y-116580478D01*
X110421215Y-116580479D01*
X110416070Y-116580902D01*
X110187449Y-116638327D01*
X109971277Y-116732322D01*
X109773359Y-116860360D01*
X109769536Y-116863839D01*
X109769533Y-116863841D01*
X109745495Y-116885714D01*
X109599011Y-117019005D01*
X109595812Y-117023056D01*
X109595808Y-117023060D01*
X109456117Y-117199939D01*
X109452915Y-117203994D01*
X109338995Y-117410361D01*
X109337271Y-117415230D01*
X109337269Y-117415234D01*
X109262035Y-117627689D01*
X109260309Y-117632564D01*
X109259402Y-117637657D01*
X109259401Y-117637660D01*
X109255113Y-117661736D01*
X109218971Y-117864633D01*
X109216091Y-118100339D01*
X100781457Y-118100339D01*
X100783909Y-117899661D01*
X100748253Y-117666651D01*
X100675020Y-117442593D01*
X100566175Y-117233504D01*
X100547415Y-117208517D01*
X100427747Y-117049135D01*
X100427745Y-117049132D01*
X100424642Y-117045000D01*
X100254223Y-116882143D01*
X100059492Y-116749307D01*
X100054808Y-116747133D01*
X100054805Y-116747131D01*
X99850372Y-116652236D01*
X99850367Y-116652234D01*
X99845681Y-116650059D01*
X99618532Y-116587065D01*
X99613395Y-116586516D01*
X99429437Y-116566856D01*
X99429429Y-116566856D01*
X99426102Y-116566500D01*
X98091243Y-116566500D01*
X98088670Y-116566712D01*
X98088659Y-116566712D01*
X97921221Y-116580478D01*
X97921215Y-116580479D01*
X97916070Y-116580902D01*
X97687449Y-116638327D01*
X97471277Y-116732322D01*
X97273359Y-116860360D01*
X97269536Y-116863839D01*
X97269533Y-116863841D01*
X97245495Y-116885714D01*
X97099011Y-117019005D01*
X97095812Y-117023056D01*
X97095808Y-117023060D01*
X96956117Y-117199939D01*
X96952915Y-117203994D01*
X96838995Y-117410361D01*
X96837271Y-117415230D01*
X96837269Y-117415234D01*
X96762035Y-117627689D01*
X96760309Y-117632564D01*
X96759402Y-117637657D01*
X96759401Y-117637660D01*
X96755113Y-117661736D01*
X96718971Y-117864633D01*
X96716091Y-118100339D01*
X81875783Y-118100339D01*
X80309653Y-113977869D01*
X88886689Y-113977869D01*
X88903238Y-114264883D01*
X88904063Y-114269088D01*
X88904064Y-114269096D01*
X88936010Y-114431921D01*
X88958586Y-114546995D01*
X88959973Y-114551045D01*
X88959974Y-114551050D01*
X89035557Y-114771807D01*
X89051710Y-114818986D01*
X89053637Y-114822817D01*
X89141310Y-114997135D01*
X89180885Y-115075822D01*
X89343721Y-115312750D01*
X89537206Y-115525388D01*
X89540501Y-115528143D01*
X89540502Y-115528144D01*
X89591258Y-115570582D01*
X89757759Y-115709798D01*
X90001298Y-115862571D01*
X90263318Y-115980877D01*
X90267437Y-115982097D01*
X90534857Y-116061311D01*
X90534862Y-116061312D01*
X90538970Y-116062529D01*
X90543204Y-116063177D01*
X90543209Y-116063178D01*
X90791811Y-116101219D01*
X90823153Y-116106015D01*
X90969485Y-116108314D01*
X91106317Y-116110464D01*
X91106323Y-116110464D01*
X91110608Y-116110531D01*
X91114860Y-116110016D01*
X91114868Y-116110016D01*
X91391756Y-116076508D01*
X91391761Y-116076507D01*
X91396017Y-116075992D01*
X91674097Y-116003039D01*
X91939704Y-115893021D01*
X92187922Y-115747974D01*
X92414159Y-115570582D01*
X92455285Y-115528144D01*
X92611244Y-115367206D01*
X92614227Y-115364128D01*
X92616760Y-115360680D01*
X92616764Y-115360675D01*
X92781887Y-115135886D01*
X92784425Y-115132431D01*
X92921604Y-114879779D01*
X93023225Y-114610848D01*
X93087407Y-114330613D01*
X93101675Y-114170748D01*
X93112743Y-114046726D01*
X93112743Y-114046724D01*
X93112963Y-114044260D01*
X93113427Y-114000000D01*
X93111918Y-113977869D01*
X116886689Y-113977869D01*
X116903238Y-114264883D01*
X116904063Y-114269088D01*
X116904064Y-114269096D01*
X116936010Y-114431921D01*
X116958586Y-114546995D01*
X116959973Y-114551045D01*
X116959974Y-114551050D01*
X117035557Y-114771807D01*
X117051710Y-114818986D01*
X117053637Y-114822817D01*
X117141310Y-114997135D01*
X117180885Y-115075822D01*
X117343721Y-115312750D01*
X117537206Y-115525388D01*
X117540501Y-115528143D01*
X117540502Y-115528144D01*
X117591258Y-115570582D01*
X117757759Y-115709798D01*
X118001298Y-115862571D01*
X118263318Y-115980877D01*
X118267437Y-115982097D01*
X118534857Y-116061311D01*
X118534862Y-116061312D01*
X118538970Y-116062529D01*
X118543204Y-116063177D01*
X118543209Y-116063178D01*
X118791811Y-116101219D01*
X118823153Y-116106015D01*
X118969485Y-116108314D01*
X119106317Y-116110464D01*
X119106323Y-116110464D01*
X119110608Y-116110531D01*
X119114860Y-116110016D01*
X119114868Y-116110016D01*
X119391756Y-116076508D01*
X119391761Y-116076507D01*
X119396017Y-116075992D01*
X119674097Y-116003039D01*
X119939704Y-115893021D01*
X120187922Y-115747974D01*
X120414159Y-115570582D01*
X120455285Y-115528144D01*
X120611244Y-115367206D01*
X120614227Y-115364128D01*
X120616760Y-115360680D01*
X120616764Y-115360675D01*
X120781887Y-115135886D01*
X120784425Y-115132431D01*
X120921604Y-114879779D01*
X121023225Y-114610848D01*
X121087407Y-114330613D01*
X121101675Y-114170748D01*
X121112743Y-114046726D01*
X121112743Y-114046724D01*
X121112963Y-114044260D01*
X121113427Y-114000000D01*
X121093873Y-113713175D01*
X121089336Y-113691264D01*
X121036443Y-113435855D01*
X121035574Y-113431658D01*
X120939607Y-113160657D01*
X120807750Y-112905188D01*
X120794488Y-112886317D01*
X120644904Y-112673482D01*
X120642441Y-112669977D01*
X120446740Y-112459378D01*
X120224268Y-112277287D01*
X119979142Y-112127073D01*
X119961048Y-112119130D01*
X119719830Y-112013243D01*
X119715898Y-112011517D01*
X119689963Y-112004129D01*
X119443534Y-111933932D01*
X119443535Y-111933932D01*
X119439406Y-111932756D01*
X119226704Y-111902485D01*
X119159036Y-111892854D01*
X119159034Y-111892854D01*
X119154784Y-111892249D01*
X119150495Y-111892227D01*
X119150488Y-111892226D01*
X118871583Y-111890765D01*
X118871576Y-111890765D01*
X118867297Y-111890743D01*
X118863053Y-111891302D01*
X118863049Y-111891302D01*
X118737660Y-111907810D01*
X118582266Y-111928268D01*
X118578126Y-111929401D01*
X118578124Y-111929401D01*
X118501311Y-111950415D01*
X118304964Y-112004129D01*
X118301016Y-112005813D01*
X118044476Y-112115237D01*
X118044472Y-112115239D01*
X118040524Y-112116923D01*
X117915960Y-112191473D01*
X117797521Y-112262357D01*
X117797517Y-112262360D01*
X117793839Y-112264561D01*
X117569472Y-112444313D01*
X117371577Y-112652851D01*
X117203814Y-112886317D01*
X117069288Y-113140392D01*
X116970489Y-113410373D01*
X116909245Y-113691264D01*
X116908909Y-113695534D01*
X116887196Y-113971428D01*
X116887195Y-113971428D01*
X116887196Y-113971430D01*
X116886689Y-113977869D01*
X93111918Y-113977869D01*
X93093873Y-113713175D01*
X93089336Y-113691264D01*
X93036443Y-113435855D01*
X93035574Y-113431658D01*
X92939607Y-113160657D01*
X92807750Y-112905188D01*
X92794488Y-112886317D01*
X92644904Y-112673482D01*
X92642441Y-112669977D01*
X92446740Y-112459378D01*
X92224268Y-112277287D01*
X91979142Y-112127073D01*
X91961048Y-112119130D01*
X91719830Y-112013243D01*
X91715898Y-112011517D01*
X91689963Y-112004129D01*
X91443534Y-111933932D01*
X91443535Y-111933932D01*
X91439406Y-111932756D01*
X91226704Y-111902485D01*
X91159036Y-111892854D01*
X91159034Y-111892854D01*
X91154784Y-111892249D01*
X91150495Y-111892227D01*
X91150488Y-111892226D01*
X90871583Y-111890765D01*
X90871576Y-111890765D01*
X90867297Y-111890743D01*
X90863053Y-111891302D01*
X90863049Y-111891302D01*
X90737660Y-111907810D01*
X90582266Y-111928268D01*
X90578126Y-111929401D01*
X90578124Y-111929401D01*
X90501311Y-111950415D01*
X90304964Y-112004129D01*
X90301016Y-112005813D01*
X90044476Y-112115237D01*
X90044472Y-112115239D01*
X90040524Y-112116923D01*
X89915960Y-112191473D01*
X89797521Y-112262357D01*
X89797517Y-112262360D01*
X89793839Y-112264561D01*
X89569472Y-112444313D01*
X89371577Y-112652851D01*
X89203814Y-112886317D01*
X89069288Y-113140392D01*
X88970489Y-113410373D01*
X88909245Y-113691264D01*
X88908909Y-113695534D01*
X88887196Y-113971428D01*
X88887195Y-113971428D01*
X88887196Y-113971430D01*
X88886689Y-113977869D01*
X80309653Y-113977869D01*
X79532712Y-111932756D01*
X77632524Y-106930958D01*
X77627030Y-106860176D01*
X77660677Y-106797658D01*
X77722782Y-106763256D01*
X77789452Y-106767619D01*
X77789795Y-106766574D01*
X77894515Y-106801004D01*
X77979601Y-106828979D01*
X77985937Y-106829712D01*
X77985941Y-106829713D01*
X78112963Y-106844410D01*
X78178080Y-106851944D01*
X78184436Y-106851388D01*
X78184438Y-106851388D01*
X78307041Y-106840661D01*
X78377123Y-106834530D01*
X78491283Y-106802011D01*
X78493902Y-106801006D01*
X78493907Y-106801004D01*
X79761753Y-106314323D01*
X79764369Y-106313319D01*
X79766879Y-106312089D01*
X79766889Y-106312085D01*
X79817043Y-106287514D01*
X79870965Y-106261098D01*
X80030535Y-106140853D01*
X80162667Y-105990979D01*
X80261964Y-105817597D01*
X80324369Y-105627790D01*
X80347334Y-105429312D01*
X80329920Y-105230269D01*
X80297401Y-105116109D01*
X79916219Y-104123097D01*
X79914996Y-104120601D01*
X79914991Y-104120589D01*
X79866636Y-104021884D01*
X79866634Y-104021881D01*
X79863998Y-104016500D01*
X79743754Y-103856931D01*
X79593879Y-103724799D01*
X79420497Y-103625502D01*
X79414442Y-103623511D01*
X79414437Y-103623509D01*
X79395096Y-103617150D01*
X79336632Y-103576871D01*
X79309568Y-103514177D01*
X79309216Y-103511548D01*
X79309154Y-103503652D01*
X79293176Y-103443180D01*
X78712524Y-101930529D01*
X78698435Y-101903114D01*
X78687545Y-101881926D01*
X78683933Y-101874898D01*
X78587322Y-101765891D01*
X78464000Y-101688382D01*
X78435248Y-101680219D01*
X78375181Y-101642371D01*
X78345111Y-101578057D01*
X78347956Y-101526401D01*
X78355978Y-101496463D01*
X78375353Y-101275000D01*
X78355978Y-101053537D01*
X78298440Y-100838804D01*
X78230135Y-100692324D01*
X78206814Y-100642311D01*
X78206811Y-100642306D01*
X78204488Y-100637324D01*
X78201331Y-100632816D01*
X78201328Y-100632810D01*
X78118563Y-100514609D01*
X78095875Y-100447335D01*
X78113160Y-100378475D01*
X78164930Y-100329891D01*
X78221776Y-100316339D01*
X93583486Y-100316339D01*
X93603195Y-100317890D01*
X93617093Y-100320091D01*
X93623680Y-100319746D01*
X93623685Y-100319746D01*
X93685383Y-100316512D01*
X93691977Y-100316339D01*
X93712513Y-100316339D01*
X93715785Y-100315995D01*
X93715787Y-100315995D01*
X93732945Y-100314192D01*
X93739519Y-100313675D01*
X93801211Y-100310442D01*
X93801215Y-100310441D01*
X93807806Y-100310096D01*
X93814187Y-100308386D01*
X93814189Y-100308386D01*
X93821394Y-100306456D01*
X93840828Y-100302854D01*
X93848257Y-100302073D01*
X93848266Y-100302071D01*
X93854831Y-100301381D01*
X93919900Y-100280239D01*
X93926202Y-100278372D01*
X93992273Y-100260668D01*
X94004811Y-100254279D01*
X94023077Y-100246714D01*
X94030175Y-100244408D01*
X94030177Y-100244407D01*
X94036459Y-100242366D01*
X94095688Y-100208170D01*
X94101482Y-100205024D01*
X94162433Y-100173968D01*
X94173370Y-100165112D01*
X94189666Y-100153912D01*
X94196127Y-100150182D01*
X94196131Y-100150179D01*
X94201847Y-100146879D01*
X94206753Y-100142462D01*
X94206758Y-100142458D01*
X94252672Y-100101117D01*
X94257687Y-100096833D01*
X94271080Y-100085987D01*
X94273644Y-100083911D01*
X94288159Y-100069396D01*
X94292944Y-100064855D01*
X94338860Y-100023512D01*
X94343769Y-100019092D01*
X94352043Y-100007704D01*
X94364884Y-99992671D01*
X100379686Y-93977869D01*
X119886689Y-93977869D01*
X119903238Y-94264883D01*
X119904063Y-94269088D01*
X119904064Y-94269096D01*
X119936010Y-94431921D01*
X119958586Y-94546995D01*
X119959973Y-94551045D01*
X119959974Y-94551050D01*
X120035557Y-94771807D01*
X120051710Y-94818986D01*
X120053637Y-94822817D01*
X120141310Y-94997135D01*
X120180885Y-95075822D01*
X120343721Y-95312750D01*
X120537206Y-95525388D01*
X120540501Y-95528143D01*
X120540502Y-95528144D01*
X120744594Y-95698790D01*
X120757759Y-95709798D01*
X121001298Y-95862571D01*
X121263318Y-95980877D01*
X121267437Y-95982097D01*
X121534857Y-96061311D01*
X121534862Y-96061312D01*
X121538970Y-96062529D01*
X121543204Y-96063177D01*
X121543209Y-96063178D01*
X121791811Y-96101219D01*
X121823153Y-96106015D01*
X121969485Y-96108314D01*
X122106317Y-96110464D01*
X122106323Y-96110464D01*
X122110608Y-96110531D01*
X122114860Y-96110016D01*
X122114868Y-96110016D01*
X122391756Y-96076508D01*
X122391761Y-96076507D01*
X122396017Y-96075992D01*
X122629057Y-96014855D01*
X122669954Y-96004126D01*
X122669955Y-96004126D01*
X122674097Y-96003039D01*
X122939704Y-95893021D01*
X123187922Y-95747974D01*
X123414159Y-95570582D01*
X123455285Y-95528144D01*
X123611244Y-95367206D01*
X123614227Y-95364128D01*
X123616760Y-95360680D01*
X123616764Y-95360675D01*
X123781887Y-95135886D01*
X123784425Y-95132431D01*
X123921604Y-94879779D01*
X124023225Y-94610848D01*
X124087407Y-94330613D01*
X124101675Y-94170748D01*
X124112743Y-94046726D01*
X124112743Y-94046724D01*
X124112963Y-94044260D01*
X124113427Y-94000000D01*
X124093873Y-93713175D01*
X124089336Y-93691264D01*
X124036443Y-93435855D01*
X124035574Y-93431658D01*
X123939607Y-93160657D01*
X123807750Y-92905188D01*
X123794488Y-92886317D01*
X123644904Y-92673482D01*
X123642441Y-92669977D01*
X123446740Y-92459378D01*
X123224268Y-92277287D01*
X122979142Y-92127073D01*
X122961048Y-92119130D01*
X122719830Y-92013243D01*
X122715898Y-92011517D01*
X122689963Y-92004129D01*
X122443534Y-91933932D01*
X122443535Y-91933932D01*
X122439406Y-91932756D01*
X122226704Y-91902485D01*
X122159036Y-91892854D01*
X122159034Y-91892854D01*
X122154784Y-91892249D01*
X122150495Y-91892227D01*
X122150488Y-91892226D01*
X121871583Y-91890765D01*
X121871576Y-91890765D01*
X121867297Y-91890743D01*
X121863053Y-91891302D01*
X121863049Y-91891302D01*
X121737660Y-91907810D01*
X121582266Y-91928268D01*
X121578126Y-91929401D01*
X121578124Y-91929401D01*
X121501311Y-91950415D01*
X121304964Y-92004129D01*
X121301016Y-92005813D01*
X121044476Y-92115237D01*
X121044472Y-92115239D01*
X121040524Y-92116923D01*
X120915960Y-92191473D01*
X120797521Y-92262357D01*
X120797517Y-92262360D01*
X120793839Y-92264561D01*
X120569472Y-92444313D01*
X120371577Y-92652851D01*
X120203814Y-92886317D01*
X120069288Y-93140392D01*
X119970489Y-93410373D01*
X119909245Y-93691264D01*
X119908909Y-93695534D01*
X119887196Y-93971428D01*
X119887195Y-93971428D01*
X119887196Y-93971430D01*
X119886689Y-93977869D01*
X100379686Y-93977869D01*
X107287822Y-87069733D01*
X107350134Y-87035707D01*
X107420949Y-87040772D01*
X107477785Y-87083319D01*
X107502438Y-87147847D01*
X107515977Y-87302606D01*
X107515978Y-87302611D01*
X107516457Y-87308087D01*
X107575716Y-87529243D01*
X107578039Y-87534224D01*
X107578039Y-87534225D01*
X107670151Y-87731762D01*
X107670154Y-87731767D01*
X107672477Y-87736749D01*
X107803802Y-87924300D01*
X107965700Y-88086198D01*
X107970208Y-88089355D01*
X107970211Y-88089357D01*
X107990958Y-88103884D01*
X108153251Y-88217523D01*
X108158233Y-88219846D01*
X108158238Y-88219849D01*
X108192457Y-88235805D01*
X108245742Y-88282722D01*
X108265203Y-88350999D01*
X108244661Y-88418959D01*
X108192457Y-88464195D01*
X108158238Y-88480151D01*
X108158233Y-88480154D01*
X108153251Y-88482477D01*
X108048389Y-88555902D01*
X107970211Y-88610643D01*
X107970208Y-88610645D01*
X107965700Y-88613802D01*
X107803802Y-88775700D01*
X107672477Y-88963251D01*
X107670154Y-88968233D01*
X107670151Y-88968238D01*
X107590423Y-89139217D01*
X107575716Y-89170757D01*
X107516457Y-89391913D01*
X107496502Y-89620000D01*
X107516457Y-89848087D01*
X107575716Y-90069243D01*
X107578039Y-90074224D01*
X107578039Y-90074225D01*
X107670151Y-90271762D01*
X107670154Y-90271767D01*
X107672477Y-90276749D01*
X107716033Y-90338953D01*
X107800640Y-90459784D01*
X107803802Y-90464300D01*
X107965700Y-90626198D01*
X107970208Y-90629355D01*
X107970211Y-90629357D01*
X108048389Y-90684098D01*
X108153251Y-90757523D01*
X108158233Y-90759846D01*
X108158238Y-90759849D01*
X108355775Y-90851961D01*
X108360757Y-90854284D01*
X108366065Y-90855706D01*
X108366067Y-90855707D01*
X108576598Y-90912119D01*
X108576600Y-90912119D01*
X108581913Y-90913543D01*
X108810000Y-90933498D01*
X109038087Y-90913543D01*
X109043400Y-90912119D01*
X109043402Y-90912119D01*
X109253933Y-90855707D01*
X109253935Y-90855706D01*
X109259243Y-90854284D01*
X109264225Y-90851961D01*
X109461762Y-90759849D01*
X109461767Y-90759846D01*
X109466749Y-90757523D01*
X109571611Y-90684098D01*
X109649789Y-90629357D01*
X109649792Y-90629355D01*
X109654300Y-90626198D01*
X109816198Y-90464300D01*
X109838655Y-90432229D01*
X109894110Y-90387901D01*
X109941867Y-90378500D01*
X112868133Y-90378500D01*
X112936254Y-90398502D01*
X112971345Y-90432228D01*
X112993802Y-90464300D01*
X113155700Y-90626198D01*
X113160208Y-90629355D01*
X113160211Y-90629357D01*
X113238389Y-90684098D01*
X113343251Y-90757523D01*
X113348233Y-90759846D01*
X113348238Y-90759849D01*
X113545775Y-90851961D01*
X113550757Y-90854284D01*
X113556065Y-90855706D01*
X113556067Y-90855707D01*
X113766598Y-90912119D01*
X113766600Y-90912119D01*
X113771913Y-90913543D01*
X114000000Y-90933498D01*
X114228087Y-90913543D01*
X114233400Y-90912119D01*
X114233402Y-90912119D01*
X114443933Y-90855707D01*
X114443935Y-90855706D01*
X114449243Y-90854284D01*
X114454225Y-90851961D01*
X114651762Y-90759849D01*
X114651767Y-90759846D01*
X114656749Y-90757523D01*
X114761611Y-90684098D01*
X114839789Y-90629357D01*
X114839792Y-90629355D01*
X114844300Y-90626198D01*
X115006198Y-90464300D01*
X115009361Y-90459784D01*
X115093967Y-90338953D01*
X115137523Y-90276749D01*
X115139846Y-90271767D01*
X115139849Y-90271762D01*
X115231961Y-90074225D01*
X115231961Y-90074224D01*
X115234284Y-90069243D01*
X115293543Y-89848087D01*
X115313498Y-89620000D01*
X115293543Y-89391913D01*
X115284191Y-89357010D01*
X115266757Y-89291946D01*
X115268447Y-89220970D01*
X115308241Y-89162174D01*
X115373505Y-89134226D01*
X115443519Y-89145999D01*
X115477559Y-89170240D01*
X115664329Y-89357010D01*
X115698355Y-89419322D01*
X115700755Y-89457086D01*
X115686502Y-89620000D01*
X115706457Y-89848087D01*
X115765716Y-90069243D01*
X115768039Y-90074224D01*
X115768039Y-90074225D01*
X115860151Y-90271762D01*
X115860154Y-90271767D01*
X115862477Y-90276749D01*
X115906033Y-90338953D01*
X115990640Y-90459784D01*
X115993802Y-90464300D01*
X116155700Y-90626198D01*
X116160208Y-90629355D01*
X116160211Y-90629357D01*
X116238389Y-90684098D01*
X116343251Y-90757523D01*
X116348233Y-90759846D01*
X116348238Y-90759849D01*
X116545775Y-90851961D01*
X116550757Y-90854284D01*
X116556065Y-90855706D01*
X116556067Y-90855707D01*
X116766598Y-90912119D01*
X116766600Y-90912119D01*
X116771913Y-90913543D01*
X117000000Y-90933498D01*
X117228087Y-90913543D01*
X117233400Y-90912119D01*
X117233402Y-90912119D01*
X117443933Y-90855707D01*
X117443935Y-90855706D01*
X117449243Y-90854284D01*
X117454225Y-90851961D01*
X117651762Y-90759849D01*
X117651767Y-90759846D01*
X117656749Y-90757523D01*
X117761611Y-90684098D01*
X117839789Y-90629357D01*
X117839792Y-90629355D01*
X117844300Y-90626198D01*
X118006198Y-90464300D01*
X118009361Y-90459784D01*
X118093967Y-90338953D01*
X118137523Y-90276749D01*
X118139846Y-90271767D01*
X118139849Y-90271762D01*
X118231961Y-90074225D01*
X118231961Y-90074224D01*
X118234284Y-90069243D01*
X118293543Y-89848087D01*
X118313498Y-89620000D01*
X118293543Y-89391913D01*
X118284191Y-89357010D01*
X118266757Y-89291946D01*
X118268447Y-89220970D01*
X118308241Y-89162174D01*
X118373505Y-89134226D01*
X118443519Y-89145999D01*
X118477559Y-89170240D01*
X118664329Y-89357010D01*
X118698355Y-89419322D01*
X118700755Y-89457086D01*
X118686502Y-89620000D01*
X118706457Y-89848087D01*
X118765716Y-90069243D01*
X118768039Y-90074224D01*
X118768039Y-90074225D01*
X118860151Y-90271762D01*
X118860154Y-90271767D01*
X118862477Y-90276749D01*
X118906033Y-90338953D01*
X118990640Y-90459784D01*
X118993802Y-90464300D01*
X119155700Y-90626198D01*
X119160208Y-90629355D01*
X119160211Y-90629357D01*
X119238389Y-90684098D01*
X119343251Y-90757523D01*
X119348233Y-90759846D01*
X119348238Y-90759849D01*
X119545775Y-90851961D01*
X119550757Y-90854284D01*
X119556065Y-90855706D01*
X119556067Y-90855707D01*
X119766598Y-90912119D01*
X119766600Y-90912119D01*
X119771913Y-90913543D01*
X120000000Y-90933498D01*
X120228087Y-90913543D01*
X120233400Y-90912119D01*
X120233402Y-90912119D01*
X120443933Y-90855707D01*
X120443935Y-90855706D01*
X120449243Y-90854284D01*
X120454225Y-90851961D01*
X120651762Y-90759849D01*
X120651767Y-90759846D01*
X120656749Y-90757523D01*
X120761611Y-90684098D01*
X120839789Y-90629357D01*
X120839792Y-90629355D01*
X120844300Y-90626198D01*
X121006198Y-90464300D01*
X121009361Y-90459784D01*
X121093967Y-90338953D01*
X121137523Y-90276749D01*
X121139846Y-90271767D01*
X121139849Y-90271762D01*
X121161755Y-90224783D01*
X121208672Y-90171498D01*
X121276949Y-90152037D01*
X121344909Y-90172579D01*
X121359735Y-90183926D01*
X121361011Y-90185062D01*
X121363609Y-90187660D01*
X121366483Y-90189934D01*
X121366490Y-90189940D01*
X121385881Y-90205281D01*
X121389285Y-90208072D01*
X121439333Y-90250591D01*
X121444915Y-90255333D01*
X121451431Y-90258661D01*
X121456480Y-90262028D01*
X121461609Y-90265195D01*
X121467346Y-90269734D01*
X121533505Y-90300655D01*
X121537399Y-90302558D01*
X121602438Y-90335769D01*
X121609546Y-90337508D01*
X121615189Y-90339607D01*
X121620952Y-90341524D01*
X121627580Y-90344622D01*
X121634742Y-90346112D01*
X121634743Y-90346112D01*
X121699042Y-90359486D01*
X121703326Y-90360456D01*
X121774240Y-90377808D01*
X121779842Y-90378156D01*
X121779845Y-90378156D01*
X121785394Y-90378500D01*
X121785392Y-90378536D01*
X121789385Y-90378775D01*
X121793577Y-90379149D01*
X121800745Y-90380640D01*
X121864976Y-90378902D01*
X121933611Y-90397054D01*
X121971595Y-90432586D01*
X121990639Y-90459784D01*
X121990643Y-90459789D01*
X121993802Y-90464300D01*
X122155700Y-90626198D01*
X122160208Y-90629355D01*
X122160211Y-90629357D01*
X122238389Y-90684098D01*
X122343251Y-90757523D01*
X122348233Y-90759846D01*
X122348238Y-90759849D01*
X122545775Y-90851961D01*
X122550757Y-90854284D01*
X122556065Y-90855706D01*
X122556067Y-90855707D01*
X122766598Y-90912119D01*
X122766600Y-90912119D01*
X122771913Y-90913543D01*
X123000000Y-90933498D01*
X123005475Y-90933019D01*
X123162913Y-90919245D01*
X123232518Y-90933234D01*
X123262990Y-90955671D01*
X123666230Y-91358911D01*
X123678616Y-91373323D01*
X123687149Y-91384918D01*
X123687154Y-91384923D01*
X123691492Y-91390818D01*
X123697070Y-91395557D01*
X123697073Y-91395560D01*
X123731768Y-91425035D01*
X123739284Y-91431965D01*
X123744979Y-91437660D01*
X123747861Y-91439940D01*
X123767251Y-91455281D01*
X123770655Y-91458072D01*
X123820703Y-91500591D01*
X123826285Y-91505333D01*
X123832801Y-91508661D01*
X123837850Y-91512028D01*
X123842979Y-91515195D01*
X123848716Y-91519734D01*
X123914875Y-91550655D01*
X123918769Y-91552558D01*
X123983808Y-91585769D01*
X123990916Y-91587508D01*
X123996559Y-91589607D01*
X124002322Y-91591524D01*
X124008950Y-91594622D01*
X124016112Y-91596112D01*
X124016113Y-91596112D01*
X124080412Y-91609486D01*
X124084696Y-91610456D01*
X124155610Y-91627808D01*
X124161212Y-91628156D01*
X124161215Y-91628156D01*
X124166764Y-91628500D01*
X124166762Y-91628536D01*
X124170755Y-91628775D01*
X124174947Y-91629149D01*
X124182115Y-91630640D01*
X124259520Y-91628546D01*
X124262928Y-91628500D01*
X127682930Y-91628500D01*
X127701880Y-91629933D01*
X127716115Y-91632099D01*
X127716119Y-91632099D01*
X127723349Y-91633199D01*
X127730641Y-91632606D01*
X127730644Y-91632606D01*
X127776018Y-91628915D01*
X127786233Y-91628500D01*
X127794293Y-91628500D01*
X127811680Y-91626473D01*
X127822507Y-91625211D01*
X127826882Y-91624778D01*
X127892339Y-91619454D01*
X127892342Y-91619453D01*
X127899637Y-91618860D01*
X127906601Y-91616604D01*
X127912560Y-91615413D01*
X127918415Y-91614029D01*
X127925681Y-91613182D01*
X127994327Y-91588265D01*
X127998455Y-91586848D01*
X128060936Y-91566607D01*
X128060938Y-91566606D01*
X128067899Y-91564351D01*
X128074154Y-91560555D01*
X128079628Y-91558049D01*
X128085058Y-91555330D01*
X128091937Y-91552833D01*
X128098058Y-91548820D01*
X128152976Y-91512814D01*
X128156680Y-91510477D01*
X128219107Y-91472595D01*
X128227484Y-91465197D01*
X128227508Y-91465224D01*
X128230500Y-91462571D01*
X128233733Y-91459868D01*
X128239852Y-91455856D01*
X128293128Y-91399617D01*
X128295506Y-91397175D01*
X128737010Y-90955671D01*
X128799322Y-90921645D01*
X128837087Y-90919245D01*
X128994525Y-90933019D01*
X129000000Y-90933498D01*
X129228087Y-90913543D01*
X129233400Y-90912119D01*
X129233402Y-90912119D01*
X129443933Y-90855707D01*
X129443935Y-90855706D01*
X129449243Y-90854284D01*
X129454225Y-90851961D01*
X129651762Y-90759849D01*
X129651767Y-90759846D01*
X129656749Y-90757523D01*
X129761611Y-90684098D01*
X129839789Y-90629357D01*
X129839792Y-90629355D01*
X129844300Y-90626198D01*
X130006198Y-90464300D01*
X130009361Y-90459784D01*
X130093967Y-90338953D01*
X130137523Y-90276749D01*
X130139846Y-90271767D01*
X130139849Y-90271762D01*
X130231961Y-90074225D01*
X130231961Y-90074224D01*
X130234284Y-90069243D01*
X130293543Y-89848087D01*
X130313498Y-89620000D01*
X130293543Y-89391913D01*
X130234284Y-89170757D01*
X130219577Y-89139217D01*
X130139849Y-88968238D01*
X130139846Y-88968233D01*
X130137523Y-88963251D01*
X130006198Y-88775700D01*
X129844300Y-88613802D01*
X129839792Y-88610645D01*
X129839789Y-88610643D01*
X129761611Y-88555902D01*
X129656749Y-88482477D01*
X129651767Y-88480154D01*
X129651762Y-88480151D01*
X129454225Y-88388039D01*
X129454224Y-88388039D01*
X129449243Y-88385716D01*
X129443935Y-88384294D01*
X129443933Y-88384293D01*
X129233402Y-88327881D01*
X129233400Y-88327881D01*
X129228087Y-88326457D01*
X129000000Y-88306502D01*
X128771913Y-88326457D01*
X128766600Y-88327881D01*
X128766598Y-88327881D01*
X128556067Y-88384293D01*
X128556065Y-88384294D01*
X128550757Y-88385716D01*
X128545776Y-88388039D01*
X128545775Y-88388039D01*
X128348238Y-88480151D01*
X128348233Y-88480154D01*
X128343251Y-88482477D01*
X128238389Y-88555902D01*
X128160211Y-88610643D01*
X128160208Y-88610645D01*
X128155700Y-88613802D01*
X127993802Y-88775700D01*
X127862477Y-88963251D01*
X127860154Y-88968233D01*
X127860151Y-88968238D01*
X127780423Y-89139217D01*
X127765716Y-89170757D01*
X127706457Y-89391913D01*
X127686502Y-89620000D01*
X127686981Y-89625475D01*
X127700755Y-89782913D01*
X127686766Y-89852518D01*
X127664329Y-89882990D01*
X127477559Y-90069760D01*
X127415247Y-90103786D01*
X127344432Y-90098721D01*
X127287596Y-90056174D01*
X127262785Y-89989654D01*
X127266757Y-89948054D01*
X127292119Y-89853402D01*
X127292119Y-89853400D01*
X127293543Y-89848087D01*
X127313498Y-89620000D01*
X127293543Y-89391913D01*
X127234284Y-89170757D01*
X127219577Y-89139217D01*
X127139849Y-88968238D01*
X127139846Y-88968233D01*
X127137523Y-88963251D01*
X127006198Y-88775700D01*
X126844300Y-88613802D01*
X126839792Y-88610645D01*
X126839789Y-88610643D01*
X126761611Y-88555902D01*
X126656749Y-88482477D01*
X126651767Y-88480154D01*
X126651762Y-88480151D01*
X126454225Y-88388039D01*
X126454224Y-88388039D01*
X126449243Y-88385716D01*
X126443935Y-88384294D01*
X126443933Y-88384293D01*
X126233402Y-88327881D01*
X126233400Y-88327881D01*
X126228087Y-88326457D01*
X126000000Y-88306502D01*
X125771913Y-88326457D01*
X125766600Y-88327881D01*
X125766598Y-88327881D01*
X125556067Y-88384293D01*
X125556065Y-88384294D01*
X125550757Y-88385716D01*
X125545776Y-88388039D01*
X125545775Y-88388039D01*
X125348238Y-88480151D01*
X125348233Y-88480154D01*
X125343251Y-88482477D01*
X125238389Y-88555902D01*
X125160211Y-88610643D01*
X125160208Y-88610645D01*
X125155700Y-88613802D01*
X124993802Y-88775700D01*
X124862477Y-88963251D01*
X124860154Y-88968233D01*
X124860151Y-88968238D01*
X124780423Y-89139217D01*
X124765716Y-89170757D01*
X124706457Y-89391913D01*
X124686502Y-89620000D01*
X124706457Y-89848087D01*
X124707881Y-89853400D01*
X124707881Y-89853402D01*
X124733243Y-89948054D01*
X124731553Y-90019030D01*
X124691759Y-90077826D01*
X124626495Y-90105774D01*
X124556481Y-90094001D01*
X124522441Y-90069760D01*
X124335671Y-89882990D01*
X124301645Y-89820678D01*
X124299245Y-89782913D01*
X124313019Y-89625475D01*
X124313498Y-89620000D01*
X124293543Y-89391913D01*
X124234284Y-89170757D01*
X124219577Y-89139217D01*
X124139849Y-88968238D01*
X124139846Y-88968233D01*
X124137523Y-88963251D01*
X124006198Y-88775700D01*
X123844300Y-88613802D01*
X123839792Y-88610645D01*
X123839789Y-88610643D01*
X123761611Y-88555902D01*
X123656749Y-88482477D01*
X123651767Y-88480154D01*
X123651762Y-88480151D01*
X123454225Y-88388039D01*
X123454224Y-88388039D01*
X123449243Y-88385716D01*
X123443935Y-88384294D01*
X123443933Y-88384293D01*
X123233402Y-88327881D01*
X123233400Y-88327881D01*
X123228087Y-88326457D01*
X123000000Y-88306502D01*
X122771913Y-88326457D01*
X122766600Y-88327881D01*
X122766598Y-88327881D01*
X122556067Y-88384293D01*
X122556065Y-88384294D01*
X122550757Y-88385716D01*
X122545776Y-88388039D01*
X122545775Y-88388039D01*
X122348238Y-88480151D01*
X122348233Y-88480154D01*
X122343251Y-88482477D01*
X122155700Y-88613802D01*
X122151810Y-88617692D01*
X122151804Y-88617697D01*
X122134501Y-88635000D01*
X122072189Y-88669026D01*
X122001374Y-88663961D01*
X121956311Y-88635000D01*
X116844583Y-83523272D01*
X116810557Y-83460960D01*
X116815622Y-83390145D01*
X116858169Y-83333309D01*
X116924689Y-83308498D01*
X116944660Y-83308657D01*
X116994514Y-83313019D01*
X116994525Y-83313019D01*
X117000000Y-83313498D01*
X117005475Y-83313019D01*
X117162913Y-83299245D01*
X117232518Y-83313234D01*
X117262990Y-83335671D01*
X117666230Y-83738911D01*
X117678616Y-83753323D01*
X117687149Y-83764918D01*
X117687154Y-83764923D01*
X117691492Y-83770818D01*
X117697070Y-83775557D01*
X117697073Y-83775560D01*
X117731768Y-83805035D01*
X117739284Y-83811965D01*
X117744979Y-83817660D01*
X117747861Y-83819940D01*
X117767251Y-83835281D01*
X117770655Y-83838072D01*
X117818528Y-83878743D01*
X117826285Y-83885333D01*
X117832801Y-83888661D01*
X117837850Y-83892028D01*
X117842979Y-83895195D01*
X117848716Y-83899734D01*
X117914875Y-83930655D01*
X117918769Y-83932558D01*
X117983808Y-83965769D01*
X117990916Y-83967508D01*
X117996559Y-83969607D01*
X118002322Y-83971524D01*
X118008950Y-83974622D01*
X118016112Y-83976112D01*
X118016113Y-83976112D01*
X118080412Y-83989486D01*
X118084696Y-83990456D01*
X118155610Y-84007808D01*
X118161212Y-84008156D01*
X118161215Y-84008156D01*
X118166764Y-84008500D01*
X118166762Y-84008536D01*
X118170755Y-84008775D01*
X118174947Y-84009149D01*
X118182115Y-84010640D01*
X118259520Y-84008546D01*
X118262928Y-84008500D01*
X132462930Y-84008500D01*
X132481880Y-84009933D01*
X132496115Y-84012099D01*
X132496119Y-84012099D01*
X132503349Y-84013199D01*
X132510641Y-84012606D01*
X132510644Y-84012606D01*
X132556018Y-84008915D01*
X132566233Y-84008500D01*
X132574293Y-84008500D01*
X132591680Y-84006473D01*
X132602507Y-84005211D01*
X132606882Y-84004778D01*
X132672339Y-83999454D01*
X132672342Y-83999453D01*
X132679637Y-83998860D01*
X132686601Y-83996604D01*
X132692560Y-83995413D01*
X132698415Y-83994029D01*
X132705681Y-83993182D01*
X132774327Y-83968265D01*
X132778455Y-83966848D01*
X132840936Y-83946607D01*
X132840938Y-83946606D01*
X132847899Y-83944351D01*
X132854154Y-83940555D01*
X132859628Y-83938049D01*
X132865058Y-83935330D01*
X132871937Y-83932833D01*
X132886544Y-83923256D01*
X132932976Y-83892814D01*
X132936680Y-83890477D01*
X132999107Y-83852595D01*
X133007484Y-83845197D01*
X133007508Y-83845224D01*
X133010500Y-83842571D01*
X133013733Y-83839868D01*
X133019852Y-83835856D01*
X133073128Y-83779617D01*
X133075506Y-83777175D01*
X134649040Y-82203641D01*
X134711352Y-82169615D01*
X134763256Y-82169266D01*
X134827585Y-82182354D01*
X134827593Y-82182355D01*
X134832656Y-82183385D01*
X134963324Y-82188176D01*
X135058949Y-82191683D01*
X135058953Y-82191683D01*
X135064113Y-82191872D01*
X135069233Y-82191216D01*
X135069235Y-82191216D01*
X135188503Y-82175937D01*
X135293847Y-82162442D01*
X135298795Y-82160957D01*
X135298802Y-82160956D01*
X135510747Y-82097369D01*
X135515690Y-82095886D01*
X135520324Y-82093616D01*
X135719049Y-81996262D01*
X135719052Y-81996260D01*
X135723684Y-81993991D01*
X135912243Y-81859494D01*
X136076303Y-81696005D01*
X136211458Y-81507917D01*
X136258641Y-81412450D01*
X136311784Y-81304922D01*
X136311785Y-81304920D01*
X136314078Y-81300280D01*
X136381408Y-81078671D01*
X136411640Y-80849041D01*
X136413327Y-80780000D01*
X136400707Y-80626495D01*
X136394773Y-80554318D01*
X136394772Y-80554312D01*
X136394349Y-80549167D01*
X136337925Y-80324533D01*
X136335866Y-80319797D01*
X136247630Y-80116868D01*
X136247628Y-80116865D01*
X136245570Y-80112131D01*
X136119764Y-79917665D01*
X136094454Y-79889849D01*
X136038318Y-79828157D01*
X135963887Y-79746358D01*
X135959836Y-79743159D01*
X135959832Y-79743155D01*
X135787077Y-79606722D01*
X135746014Y-79548805D01*
X135742782Y-79477882D01*
X135778407Y-79416470D01*
X135792001Y-79405261D01*
X135795872Y-79402500D01*
X135912243Y-79319494D01*
X136076303Y-79156005D01*
X136211458Y-78967917D01*
X136214899Y-78960956D01*
X136311784Y-78764922D01*
X136311785Y-78764920D01*
X136314078Y-78760280D01*
X136381408Y-78538671D01*
X136411640Y-78309041D01*
X136411781Y-78303278D01*
X136413245Y-78243365D01*
X136413245Y-78243361D01*
X136413327Y-78240000D01*
X136401262Y-78093251D01*
X136394773Y-78014318D01*
X136394772Y-78014312D01*
X136394349Y-78009167D01*
X136356197Y-77857276D01*
X136339184Y-77789544D01*
X136339183Y-77789540D01*
X136337925Y-77784533D01*
X136332271Y-77771529D01*
X136247630Y-77576868D01*
X136247628Y-77576865D01*
X136245570Y-77572131D01*
X136119764Y-77377665D01*
X136091704Y-77346827D01*
X136029848Y-77278848D01*
X135998796Y-77215002D01*
X136007192Y-77144504D01*
X136052369Y-77089736D01*
X136078812Y-77076067D01*
X136138297Y-77053767D01*
X136146705Y-77050615D01*
X136263261Y-76963261D01*
X136350615Y-76846705D01*
X136401745Y-76710316D01*
X136408500Y-76648134D01*
X136408500Y-74751866D01*
X136401745Y-74689684D01*
X136350615Y-74553295D01*
X136263261Y-74436739D01*
X136146705Y-74349385D01*
X136010316Y-74298255D01*
X135948134Y-74291500D01*
X134051866Y-74291500D01*
X133989684Y-74298255D01*
X133853295Y-74349385D01*
X133736739Y-74436739D01*
X133649385Y-74553295D01*
X133598255Y-74689684D01*
X133591500Y-74751866D01*
X133591500Y-76283629D01*
X133571498Y-76351750D01*
X133554595Y-76372724D01*
X129262990Y-80664329D01*
X129200678Y-80698355D01*
X129162913Y-80700755D01*
X129005475Y-80686981D01*
X129000000Y-80686502D01*
X128771913Y-80706457D01*
X128766600Y-80707881D01*
X128766598Y-80707881D01*
X128556067Y-80764293D01*
X128556065Y-80764294D01*
X128550757Y-80765716D01*
X128545776Y-80768039D01*
X128545775Y-80768039D01*
X128348238Y-80860151D01*
X128348233Y-80860154D01*
X128343251Y-80862477D01*
X128266970Y-80915890D01*
X128160211Y-80990643D01*
X128160208Y-80990645D01*
X128155700Y-80993802D01*
X127993802Y-81155700D01*
X127990645Y-81160208D01*
X127990643Y-81160211D01*
X127935902Y-81238389D01*
X127862477Y-81343251D01*
X127860154Y-81348233D01*
X127860151Y-81348238D01*
X127768039Y-81545775D01*
X127765716Y-81550757D01*
X127764294Y-81556065D01*
X127764293Y-81556067D01*
X127707881Y-81766598D01*
X127706457Y-81771913D01*
X127686502Y-82000000D01*
X127706457Y-82228087D01*
X127734539Y-82332888D01*
X127732849Y-82403865D01*
X127693055Y-82462661D01*
X127627791Y-82490609D01*
X127612832Y-82491500D01*
X127387168Y-82491500D01*
X127319047Y-82471498D01*
X127272554Y-82417842D01*
X127262450Y-82347568D01*
X127265461Y-82332888D01*
X127293543Y-82228087D01*
X127313498Y-82000000D01*
X127299614Y-81841308D01*
X127313603Y-81771703D01*
X127329111Y-81748746D01*
X127355035Y-81718232D01*
X127361964Y-81710717D01*
X127367659Y-81705022D01*
X127385280Y-81682750D01*
X127388071Y-81679346D01*
X127430590Y-81629298D01*
X127430591Y-81629296D01*
X127435332Y-81623716D01*
X127438660Y-81617200D01*
X127442027Y-81612151D01*
X127445194Y-81607022D01*
X127449733Y-81601285D01*
X127480654Y-81535126D01*
X127482560Y-81531226D01*
X127487639Y-81521279D01*
X127515768Y-81466193D01*
X127517507Y-81459085D01*
X127519606Y-81453442D01*
X127521523Y-81447679D01*
X127524621Y-81441051D01*
X127539486Y-81369584D01*
X127540456Y-81365300D01*
X127556472Y-81299846D01*
X127557807Y-81294391D01*
X127558499Y-81283237D01*
X127558535Y-81283239D01*
X127558774Y-81279246D01*
X127559148Y-81275054D01*
X127560639Y-81267886D01*
X127558545Y-81190480D01*
X127558499Y-81187073D01*
X127558499Y-74367069D01*
X127559932Y-74348119D01*
X127562098Y-74333884D01*
X127562098Y-74333880D01*
X127563198Y-74326650D01*
X127560889Y-74298255D01*
X127558914Y-74273981D01*
X127558499Y-74263766D01*
X127558499Y-74255706D01*
X127555210Y-74227492D01*
X127554777Y-74223117D01*
X127549453Y-74157660D01*
X127549452Y-74157657D01*
X127548859Y-74150362D01*
X127546603Y-74143398D01*
X127545412Y-74137439D01*
X127544028Y-74131584D01*
X127543181Y-74124318D01*
X127518264Y-74055672D01*
X127516847Y-74051544D01*
X127496606Y-73989063D01*
X127496605Y-73989061D01*
X127494350Y-73982100D01*
X127490554Y-73975845D01*
X127488048Y-73970371D01*
X127485329Y-73964941D01*
X127482832Y-73958062D01*
X127473943Y-73944504D01*
X127442813Y-73897023D01*
X127440466Y-73893304D01*
X127434852Y-73884052D01*
X127402594Y-73830892D01*
X127395196Y-73822515D01*
X127395223Y-73822491D01*
X127392570Y-73819499D01*
X127389867Y-73816266D01*
X127385855Y-73810147D01*
X127329616Y-73756871D01*
X127327174Y-73754493D01*
X126445405Y-72872724D01*
X126411379Y-72810412D01*
X126408500Y-72783629D01*
X126408500Y-71551866D01*
X126401745Y-71489684D01*
X126350615Y-71353295D01*
X126263261Y-71236739D01*
X126146705Y-71149385D01*
X126010316Y-71098255D01*
X125948134Y-71091500D01*
X124051866Y-71091500D01*
X123989684Y-71098255D01*
X123853295Y-71149385D01*
X123736739Y-71236739D01*
X123649385Y-71353295D01*
X123598255Y-71489684D01*
X123591500Y-71551866D01*
X123591500Y-73448134D01*
X123598255Y-73510316D01*
X123649385Y-73646705D01*
X123736739Y-73763261D01*
X123853295Y-73850615D01*
X123861704Y-73853767D01*
X123861705Y-73853768D01*
X123921164Y-73876058D01*
X123977929Y-73918699D01*
X124002629Y-73985261D01*
X123987422Y-74054609D01*
X123968029Y-74081091D01*
X123914182Y-74137439D01*
X123901639Y-74150564D01*
X123898725Y-74154836D01*
X123898724Y-74154837D01*
X123883152Y-74177665D01*
X123771119Y-74341899D01*
X123673602Y-74551981D01*
X123611707Y-74775169D01*
X123587095Y-75005469D01*
X123587392Y-75010622D01*
X123587392Y-75010625D01*
X123593067Y-75109041D01*
X123600427Y-75236697D01*
X123601564Y-75241743D01*
X123601565Y-75241749D01*
X123624644Y-75344156D01*
X123651346Y-75462642D01*
X123653288Y-75467424D01*
X123653289Y-75467428D01*
X123717793Y-75626281D01*
X123738484Y-75677237D01*
X123774619Y-75736204D01*
X123856109Y-75869183D01*
X123859501Y-75874719D01*
X124011147Y-76049784D01*
X124189349Y-76197730D01*
X124193819Y-76200342D01*
X124197511Y-76202500D01*
X124246232Y-76254140D01*
X124259301Y-76323924D01*
X124232566Y-76389694D01*
X124209589Y-76412045D01*
X124203304Y-76416764D01*
X124097765Y-76496005D01*
X124061655Y-76523117D01*
X124058083Y-76526855D01*
X123934315Y-76656371D01*
X123901639Y-76690564D01*
X123898725Y-76694836D01*
X123898724Y-76694837D01*
X123867684Y-76740340D01*
X123771119Y-76881899D01*
X123673602Y-77091981D01*
X123611707Y-77315169D01*
X123587095Y-77545469D01*
X123587392Y-77550622D01*
X123587392Y-77550625D01*
X123596745Y-77712830D01*
X123580697Y-77781989D01*
X123529807Y-77831494D01*
X123460231Y-77845626D01*
X123394060Y-77819899D01*
X123381859Y-77809178D01*
X116445405Y-70872724D01*
X116411379Y-70810412D01*
X116408500Y-70783629D01*
X116408500Y-69551866D01*
X116401745Y-69489684D01*
X116350615Y-69353295D01*
X116263261Y-69236739D01*
X116146705Y-69149385D01*
X116010316Y-69098255D01*
X115948134Y-69091500D01*
X114051866Y-69091500D01*
X113989684Y-69098255D01*
X113853295Y-69149385D01*
X113736739Y-69236739D01*
X113649385Y-69353295D01*
X113598255Y-69489684D01*
X113591500Y-69551866D01*
X113591500Y-71448134D01*
X113598255Y-71510316D01*
X113649385Y-71646705D01*
X113736739Y-71763261D01*
X113853295Y-71850615D01*
X113861704Y-71853767D01*
X113861705Y-71853768D01*
X113921164Y-71876058D01*
X113977929Y-71918699D01*
X114002629Y-71985261D01*
X113987422Y-72054609D01*
X113968029Y-72081091D01*
X113901639Y-72150564D01*
X113898725Y-72154836D01*
X113898724Y-72154837D01*
X113883152Y-72177665D01*
X113771119Y-72341899D01*
X113673602Y-72551981D01*
X113611707Y-72775169D01*
X113611159Y-72780297D01*
X113611158Y-72780302D01*
X113606516Y-72823746D01*
X113579389Y-72889356D01*
X113521097Y-72929884D01*
X113450147Y-72932464D01*
X113392134Y-72899453D01*
X112543770Y-72051089D01*
X112531384Y-72036677D01*
X112522851Y-72025082D01*
X112522846Y-72025077D01*
X112518508Y-72019182D01*
X112512930Y-72014443D01*
X112512927Y-72014440D01*
X112478232Y-71984965D01*
X112470716Y-71978035D01*
X112465021Y-71972340D01*
X112458880Y-71967482D01*
X112442749Y-71954719D01*
X112439345Y-71951928D01*
X112389297Y-71909409D01*
X112389295Y-71909408D01*
X112383715Y-71904667D01*
X112377199Y-71901339D01*
X112372150Y-71897972D01*
X112367021Y-71894805D01*
X112361284Y-71890266D01*
X112295125Y-71859345D01*
X112291225Y-71857439D01*
X112277861Y-71850615D01*
X112226192Y-71824231D01*
X112219084Y-71822492D01*
X112213441Y-71820393D01*
X112207678Y-71818476D01*
X112201050Y-71815378D01*
X112129583Y-71800513D01*
X112125299Y-71799543D01*
X112054390Y-71782192D01*
X112048788Y-71781844D01*
X112048785Y-71781844D01*
X112043236Y-71781500D01*
X112043238Y-71781464D01*
X112039245Y-71781225D01*
X112035053Y-71780851D01*
X112027885Y-71779360D01*
X111961675Y-71781151D01*
X111950479Y-71781454D01*
X111947072Y-71781500D01*
X106255493Y-71781500D01*
X106187372Y-71761498D01*
X106149701Y-71723941D01*
X106122571Y-71682004D01*
X106119764Y-71677665D01*
X106098992Y-71654837D01*
X106029848Y-71578848D01*
X105998796Y-71515002D01*
X106007192Y-71444504D01*
X106052369Y-71389736D01*
X106078812Y-71376067D01*
X106138297Y-71353767D01*
X106146705Y-71350615D01*
X106263261Y-71263261D01*
X106350615Y-71146705D01*
X106401745Y-71010316D01*
X106408500Y-70948134D01*
X106408500Y-69051866D01*
X106401745Y-68989684D01*
X106350615Y-68853295D01*
X106263261Y-68736739D01*
X106146705Y-68649385D01*
X106010316Y-68598255D01*
X105948134Y-68591500D01*
X104051866Y-68591500D01*
X103989684Y-68598255D01*
X103853295Y-68649385D01*
X103736739Y-68736739D01*
X103649385Y-68853295D01*
X103598255Y-68989684D01*
X103591500Y-69051866D01*
X103591500Y-70948134D01*
X103598255Y-71010316D01*
X103649385Y-71146705D01*
X103736739Y-71263261D01*
X103853295Y-71350615D01*
X103861704Y-71353767D01*
X103861705Y-71353768D01*
X103921164Y-71376058D01*
X103977929Y-71418699D01*
X104002629Y-71485261D01*
X103987422Y-71554609D01*
X103968029Y-71581091D01*
X103913362Y-71638297D01*
X103901639Y-71650564D01*
X103898725Y-71654836D01*
X103898724Y-71654837D01*
X103883152Y-71677665D01*
X103771119Y-71841899D01*
X103673602Y-72051981D01*
X103663783Y-72087388D01*
X103635556Y-72189172D01*
X103598077Y-72249470D01*
X103533948Y-72279933D01*
X103514138Y-72281500D01*
X96255493Y-72281500D01*
X96187372Y-72261498D01*
X96149701Y-72223941D01*
X96122571Y-72182004D01*
X96119764Y-72177665D01*
X96091704Y-72146827D01*
X96029848Y-72078848D01*
X95998796Y-72015002D01*
X96007192Y-71944504D01*
X96052369Y-71889736D01*
X96078812Y-71876067D01*
X96123348Y-71859371D01*
X96146705Y-71850615D01*
X96263261Y-71763261D01*
X96350615Y-71646705D01*
X96401745Y-71510316D01*
X96408500Y-71448134D01*
X96408500Y-69551866D01*
X96401745Y-69489684D01*
X96350615Y-69353295D01*
X96263261Y-69236739D01*
X96146705Y-69149385D01*
X96010316Y-69098255D01*
X95948134Y-69091500D01*
X94051866Y-69091500D01*
X93989684Y-69098255D01*
X93853295Y-69149385D01*
X93736739Y-69236739D01*
X93649385Y-69353295D01*
X93598255Y-69489684D01*
X93591500Y-69551866D01*
X93591500Y-71283629D01*
X93571498Y-71351750D01*
X93554595Y-71372724D01*
X86262167Y-78665152D01*
X86199855Y-78699178D01*
X86129040Y-78694113D01*
X86072204Y-78651566D01*
X86047393Y-78585046D01*
X86062484Y-78515672D01*
X86075372Y-78496933D01*
X86076303Y-78496005D01*
X86211458Y-78307917D01*
X86243362Y-78243365D01*
X86311784Y-78104922D01*
X86311785Y-78104920D01*
X86314078Y-78100280D01*
X86381408Y-77878671D01*
X86411640Y-77649041D01*
X86411722Y-77645691D01*
X86413245Y-77583365D01*
X86413245Y-77583361D01*
X86413327Y-77580000D01*
X86403170Y-77456457D01*
X86394773Y-77354318D01*
X86394772Y-77354312D01*
X86394349Y-77349167D01*
X86350176Y-77173305D01*
X86339184Y-77129544D01*
X86339183Y-77129540D01*
X86337925Y-77124533D01*
X86335866Y-77119797D01*
X86247630Y-76916868D01*
X86247628Y-76916865D01*
X86245570Y-76912131D01*
X86119764Y-76717665D01*
X86086615Y-76681234D01*
X86056496Y-76648134D01*
X85963887Y-76546358D01*
X85959836Y-76543159D01*
X85959832Y-76543155D01*
X85787077Y-76406722D01*
X85746014Y-76348805D01*
X85742782Y-76277882D01*
X85778407Y-76216470D01*
X85792001Y-76205261D01*
X85795872Y-76202500D01*
X85912243Y-76119494D01*
X86076303Y-75956005D01*
X86085576Y-75943101D01*
X86138691Y-75869183D01*
X86211458Y-75767917D01*
X86227132Y-75736204D01*
X86311784Y-75564922D01*
X86311785Y-75564920D01*
X86314078Y-75560280D01*
X86381408Y-75338671D01*
X86411640Y-75109041D01*
X86411722Y-75105691D01*
X86413245Y-75043365D01*
X86413245Y-75043361D01*
X86413327Y-75040000D01*
X86402458Y-74907793D01*
X86394773Y-74814318D01*
X86394772Y-74814312D01*
X86394349Y-74809167D01*
X86337925Y-74584533D01*
X86335866Y-74579797D01*
X86247630Y-74376868D01*
X86247628Y-74376865D01*
X86245570Y-74372131D01*
X86119764Y-74177665D01*
X86095104Y-74150564D01*
X86029848Y-74078848D01*
X85998796Y-74015002D01*
X86007192Y-73944504D01*
X86052369Y-73889736D01*
X86078812Y-73876067D01*
X86138297Y-73853767D01*
X86146705Y-73850615D01*
X86263261Y-73763261D01*
X86350615Y-73646705D01*
X86401745Y-73510316D01*
X86408500Y-73448134D01*
X86408500Y-71551866D01*
X86401745Y-71489684D01*
X86350615Y-71353295D01*
X86263261Y-71236739D01*
X86146705Y-71149385D01*
X86010316Y-71098255D01*
X85948134Y-71091500D01*
X84051866Y-71091500D01*
X83989684Y-71098255D01*
X83853295Y-71149385D01*
X83736739Y-71236739D01*
X83649385Y-71353295D01*
X83598255Y-71489684D01*
X83591500Y-71551866D01*
X83591500Y-72783629D01*
X83571498Y-72851750D01*
X83554595Y-72872724D01*
X80511089Y-75916230D01*
X80496677Y-75928616D01*
X80485082Y-75937149D01*
X80485077Y-75937154D01*
X80479182Y-75941492D01*
X80474443Y-75947070D01*
X80474440Y-75947073D01*
X80444965Y-75981768D01*
X80438035Y-75989284D01*
X80432340Y-75994979D01*
X80430060Y-75997861D01*
X80414719Y-76017251D01*
X80411928Y-76020655D01*
X80387890Y-76048950D01*
X80364667Y-76076285D01*
X80361339Y-76082801D01*
X80357972Y-76087850D01*
X80354805Y-76092979D01*
X80350266Y-76098716D01*
X80319345Y-76164875D01*
X80317442Y-76168769D01*
X80284231Y-76233808D01*
X80282492Y-76240916D01*
X80280393Y-76246559D01*
X80278476Y-76252322D01*
X80275378Y-76258950D01*
X80264320Y-76312116D01*
X80260514Y-76330412D01*
X80259544Y-76334696D01*
X80242192Y-76405610D01*
X80241500Y-76416764D01*
X80241464Y-76416762D01*
X80241225Y-76420755D01*
X80240851Y-76424947D01*
X80239360Y-76432115D01*
X80239558Y-76439432D01*
X80241454Y-76509521D01*
X80241500Y-76512928D01*
X80241500Y-80868133D01*
X80221498Y-80936254D01*
X80187772Y-80971345D01*
X80155700Y-80993802D01*
X80044212Y-81105290D01*
X79981900Y-81139316D01*
X79911085Y-81134251D01*
X79854249Y-81091704D01*
X79829438Y-81025184D01*
X79829117Y-81016195D01*
X79829117Y-79837687D01*
X79830550Y-79818737D01*
X79832716Y-79804502D01*
X79832716Y-79804498D01*
X79833816Y-79797268D01*
X79830733Y-79759357D01*
X79829532Y-79744599D01*
X79829117Y-79734384D01*
X79829117Y-79726324D01*
X79825826Y-79698097D01*
X79825395Y-79693738D01*
X79820070Y-79628277D01*
X79819477Y-79620981D01*
X79817222Y-79614020D01*
X79816035Y-79608080D01*
X79814646Y-79602205D01*
X79813799Y-79594936D01*
X79788881Y-79526287D01*
X79787464Y-79522159D01*
X79767224Y-79459681D01*
X79767223Y-79459679D01*
X79764968Y-79452718D01*
X79761172Y-79446463D01*
X79758666Y-79440989D01*
X79755947Y-79435559D01*
X79753450Y-79428680D01*
X79745445Y-79416470D01*
X79713431Y-79367641D01*
X79711084Y-79363922D01*
X79673212Y-79301510D01*
X79665814Y-79293133D01*
X79665841Y-79293109D01*
X79663188Y-79290117D01*
X79660485Y-79286884D01*
X79656473Y-79280765D01*
X79600234Y-79227489D01*
X79597792Y-79225111D01*
X76445405Y-76072724D01*
X76411379Y-76010412D01*
X76408500Y-75983629D01*
X76408500Y-74751866D01*
X76401745Y-74689684D01*
X76350615Y-74553295D01*
X76263261Y-74436739D01*
X76146705Y-74349385D01*
X76010316Y-74298255D01*
X75948134Y-74291500D01*
X74051866Y-74291500D01*
X73989684Y-74298255D01*
X73853295Y-74349385D01*
X73736739Y-74436739D01*
X73649385Y-74553295D01*
X73598255Y-74689684D01*
X73591500Y-74751866D01*
X73591500Y-76648134D01*
X73598255Y-76710316D01*
X73649385Y-76846705D01*
X73736739Y-76963261D01*
X73853295Y-77050615D01*
X73861704Y-77053767D01*
X73861705Y-77053768D01*
X73921164Y-77076058D01*
X73977929Y-77118699D01*
X74002629Y-77185261D01*
X73987422Y-77254609D01*
X73968029Y-77281091D01*
X73907763Y-77344156D01*
X73901639Y-77350564D01*
X73898725Y-77354836D01*
X73898724Y-77354837D01*
X73864970Y-77404319D01*
X73771119Y-77541899D01*
X73673602Y-77751981D01*
X73611707Y-77975169D01*
X73587095Y-78205469D01*
X73587392Y-78210622D01*
X73587392Y-78210625D01*
X73595320Y-78348128D01*
X73600427Y-78436697D01*
X73601564Y-78441743D01*
X73601565Y-78441749D01*
X73625146Y-78546384D01*
X73651346Y-78662642D01*
X73653288Y-78667424D01*
X73653289Y-78667428D01*
X73730034Y-78856427D01*
X73738484Y-78877237D01*
X73859501Y-79074719D01*
X74011147Y-79249784D01*
X74189349Y-79397730D01*
X74193819Y-79400342D01*
X74197511Y-79402500D01*
X74246232Y-79454140D01*
X74259301Y-79523924D01*
X74232566Y-79589694D01*
X74209589Y-79612045D01*
X74094956Y-79698114D01*
X74061655Y-79723117D01*
X73901639Y-79890564D01*
X73898725Y-79894836D01*
X73898724Y-79894837D01*
X73883152Y-79917665D01*
X73771119Y-80081899D01*
X73673602Y-80291981D01*
X73611707Y-80515169D01*
X73587095Y-80745469D01*
X73587392Y-80750622D01*
X73587392Y-80750625D01*
X73593067Y-80849041D01*
X73600427Y-80976697D01*
X73601564Y-80981743D01*
X73601565Y-80981749D01*
X73625078Y-81086083D01*
X73651346Y-81202642D01*
X73653288Y-81207424D01*
X73653289Y-81207428D01*
X73719136Y-81369589D01*
X73738484Y-81417237D01*
X73859501Y-81614719D01*
X74011147Y-81789784D01*
X74189349Y-81937730D01*
X74389322Y-82054584D01*
X74394147Y-82056426D01*
X74394148Y-82056427D01*
X74413624Y-82063864D01*
X74605694Y-82137209D01*
X74610760Y-82138240D01*
X74610761Y-82138240D01*
X74647335Y-82145681D01*
X74832656Y-82183385D01*
X74963324Y-82188176D01*
X75058949Y-82191683D01*
X75058953Y-82191683D01*
X75064113Y-82191872D01*
X75069233Y-82191216D01*
X75069235Y-82191216D01*
X75188503Y-82175937D01*
X75293847Y-82162442D01*
X75298795Y-82160957D01*
X75298802Y-82160956D01*
X75467542Y-82110331D01*
X75538537Y-82109915D01*
X75598487Y-82147947D01*
X75622187Y-82188023D01*
X75623677Y-82192128D01*
X75627857Y-82203641D01*
X75631723Y-82214292D01*
X75633152Y-82218455D01*
X75647580Y-82262990D01*
X75655649Y-82287899D01*
X75659445Y-82294154D01*
X75661951Y-82299628D01*
X75664670Y-82305058D01*
X75667167Y-82311937D01*
X75671180Y-82318057D01*
X75671180Y-82318058D01*
X75707186Y-82372976D01*
X75709523Y-82376680D01*
X75747405Y-82439107D01*
X75751121Y-82443315D01*
X75751122Y-82443316D01*
X75754803Y-82447484D01*
X75754776Y-82447508D01*
X75757429Y-82450500D01*
X75760132Y-82453733D01*
X75764144Y-82459852D01*
X75789409Y-82483786D01*
X75820383Y-82513128D01*
X75822825Y-82515506D01*
X81449760Y-88142441D01*
X81483786Y-88204753D01*
X81478721Y-88275568D01*
X81436174Y-88332404D01*
X81369654Y-88357215D01*
X81328054Y-88353243D01*
X81233402Y-88327881D01*
X81233400Y-88327881D01*
X81228087Y-88326457D01*
X81000000Y-88306502D01*
X80771913Y-88326457D01*
X80766600Y-88327881D01*
X80766598Y-88327881D01*
X80556067Y-88384293D01*
X80556065Y-88384294D01*
X80550757Y-88385716D01*
X80545776Y-88388039D01*
X80545775Y-88388039D01*
X80348238Y-88480151D01*
X80348233Y-88480154D01*
X80343251Y-88482477D01*
X80238389Y-88555902D01*
X80160211Y-88610643D01*
X80160208Y-88610645D01*
X80155700Y-88613802D01*
X79993802Y-88775700D01*
X79862477Y-88963251D01*
X79860154Y-88968233D01*
X79860151Y-88968238D01*
X79780423Y-89139217D01*
X79765716Y-89170757D01*
X79706457Y-89391913D01*
X79686502Y-89620000D01*
X79706457Y-89848087D01*
X79765716Y-90069243D01*
X79768039Y-90074224D01*
X79768039Y-90074225D01*
X79860151Y-90271762D01*
X79860154Y-90271767D01*
X79862477Y-90276749D01*
X79906033Y-90338953D01*
X79990640Y-90459784D01*
X79993802Y-90464300D01*
X80155700Y-90626198D01*
X80160208Y-90629355D01*
X80160211Y-90629357D01*
X80238389Y-90684098D01*
X80343251Y-90757523D01*
X80348233Y-90759846D01*
X80348238Y-90759849D01*
X80545775Y-90851961D01*
X80550757Y-90854284D01*
X80556065Y-90855706D01*
X80556067Y-90855707D01*
X80766598Y-90912119D01*
X80766600Y-90912119D01*
X80771913Y-90913543D01*
X81000000Y-90933498D01*
X81005475Y-90933019D01*
X81162913Y-90919245D01*
X81232518Y-90933234D01*
X81262990Y-90955671D01*
X81666230Y-91358911D01*
X81678616Y-91373323D01*
X81687149Y-91384918D01*
X81687154Y-91384923D01*
X81691492Y-91390818D01*
X81697070Y-91395557D01*
X81697073Y-91395560D01*
X81731768Y-91425035D01*
X81739284Y-91431965D01*
X81744979Y-91437660D01*
X81747861Y-91439940D01*
X81767251Y-91455281D01*
X81770655Y-91458072D01*
X81820703Y-91500591D01*
X81826285Y-91505333D01*
X81832801Y-91508661D01*
X81837850Y-91512028D01*
X81842979Y-91515195D01*
X81848716Y-91519734D01*
X81914875Y-91550655D01*
X81918769Y-91552558D01*
X81983808Y-91585769D01*
X81990916Y-91587508D01*
X81996559Y-91589607D01*
X82002322Y-91591524D01*
X82008950Y-91594622D01*
X82016112Y-91596112D01*
X82016113Y-91596112D01*
X82080412Y-91609486D01*
X82084696Y-91610456D01*
X82155610Y-91627808D01*
X82161212Y-91628156D01*
X82161215Y-91628156D01*
X82166764Y-91628500D01*
X82166762Y-91628536D01*
X82170755Y-91628775D01*
X82174947Y-91629149D01*
X82182115Y-91630640D01*
X82259520Y-91628546D01*
X82262928Y-91628500D01*
X85682930Y-91628500D01*
X85701880Y-91629933D01*
X85716115Y-91632099D01*
X85716119Y-91632099D01*
X85723349Y-91633199D01*
X85730641Y-91632606D01*
X85730644Y-91632606D01*
X85776018Y-91628915D01*
X85786233Y-91628500D01*
X85794293Y-91628500D01*
X85811680Y-91626473D01*
X85822507Y-91625211D01*
X85826882Y-91624778D01*
X85892339Y-91619454D01*
X85892342Y-91619453D01*
X85899637Y-91618860D01*
X85906601Y-91616604D01*
X85912560Y-91615413D01*
X85918415Y-91614029D01*
X85925681Y-91613182D01*
X85994327Y-91588265D01*
X85998455Y-91586848D01*
X86060936Y-91566607D01*
X86060938Y-91566606D01*
X86067899Y-91564351D01*
X86074154Y-91560555D01*
X86079628Y-91558049D01*
X86085058Y-91555330D01*
X86091937Y-91552833D01*
X86098058Y-91548820D01*
X86152976Y-91512814D01*
X86156680Y-91510477D01*
X86219107Y-91472595D01*
X86227484Y-91465197D01*
X86227508Y-91465224D01*
X86230500Y-91462571D01*
X86233733Y-91459868D01*
X86239852Y-91455856D01*
X86293128Y-91399617D01*
X86295506Y-91397175D01*
X86737010Y-90955671D01*
X86799322Y-90921645D01*
X86837087Y-90919245D01*
X86994525Y-90933019D01*
X87000000Y-90933498D01*
X87228087Y-90913543D01*
X87233400Y-90912119D01*
X87233402Y-90912119D01*
X87443933Y-90855707D01*
X87443935Y-90855706D01*
X87449243Y-90854284D01*
X87454225Y-90851961D01*
X87651762Y-90759849D01*
X87651767Y-90759846D01*
X87656749Y-90757523D01*
X87761611Y-90684098D01*
X87839789Y-90629357D01*
X87839792Y-90629355D01*
X87844300Y-90626198D01*
X88006198Y-90464300D01*
X88009361Y-90459784D01*
X88093967Y-90338953D01*
X88137523Y-90276749D01*
X88139846Y-90271767D01*
X88139849Y-90271762D01*
X88231961Y-90074225D01*
X88231961Y-90074224D01*
X88234284Y-90069243D01*
X88293543Y-89848087D01*
X88313498Y-89620000D01*
X88293543Y-89391913D01*
X88234284Y-89170757D01*
X88219577Y-89139217D01*
X88139849Y-88968238D01*
X88139846Y-88968233D01*
X88137523Y-88963251D01*
X88006198Y-88775700D01*
X87844300Y-88613802D01*
X87839792Y-88610645D01*
X87839789Y-88610643D01*
X87761611Y-88555902D01*
X87656749Y-88482477D01*
X87651767Y-88480154D01*
X87651762Y-88480151D01*
X87454225Y-88388039D01*
X87454224Y-88388039D01*
X87449243Y-88385716D01*
X87443935Y-88384294D01*
X87443933Y-88384293D01*
X87233402Y-88327881D01*
X87233400Y-88327881D01*
X87228087Y-88326457D01*
X87000000Y-88306502D01*
X86771913Y-88326457D01*
X86766600Y-88327881D01*
X86766598Y-88327881D01*
X86556067Y-88384293D01*
X86556065Y-88384294D01*
X86550757Y-88385716D01*
X86545776Y-88388039D01*
X86545775Y-88388039D01*
X86348238Y-88480151D01*
X86348233Y-88480154D01*
X86343251Y-88482477D01*
X86238389Y-88555902D01*
X86160211Y-88610643D01*
X86160208Y-88610645D01*
X86155700Y-88613802D01*
X85993802Y-88775700D01*
X85862477Y-88963251D01*
X85860154Y-88968233D01*
X85860151Y-88968238D01*
X85780423Y-89139217D01*
X85765716Y-89170757D01*
X85706457Y-89391913D01*
X85686502Y-89620000D01*
X85686981Y-89625475D01*
X85700755Y-89782913D01*
X85686766Y-89852518D01*
X85664329Y-89882990D01*
X85477559Y-90069760D01*
X85415247Y-90103786D01*
X85344432Y-90098721D01*
X85287596Y-90056174D01*
X85262785Y-89989654D01*
X85266757Y-89948054D01*
X85292119Y-89853402D01*
X85292119Y-89853400D01*
X85293543Y-89848087D01*
X85313498Y-89620000D01*
X85293543Y-89391913D01*
X85234284Y-89170757D01*
X85219577Y-89139217D01*
X85139849Y-88968238D01*
X85139846Y-88968233D01*
X85137523Y-88963251D01*
X85006198Y-88775700D01*
X84844300Y-88613802D01*
X84839792Y-88610645D01*
X84839789Y-88610643D01*
X84761611Y-88555902D01*
X84656749Y-88482477D01*
X84651767Y-88480154D01*
X84651762Y-88480151D01*
X84454225Y-88388039D01*
X84454224Y-88388039D01*
X84449243Y-88385716D01*
X84443935Y-88384294D01*
X84443933Y-88384293D01*
X84233402Y-88327881D01*
X84233400Y-88327881D01*
X84228087Y-88326457D01*
X84000000Y-88306502D01*
X83994525Y-88306981D01*
X83837087Y-88320755D01*
X83767482Y-88306766D01*
X83737010Y-88284329D01*
X79738276Y-84285595D01*
X79704250Y-84223283D01*
X79709315Y-84152468D01*
X79751862Y-84095632D01*
X79818382Y-84070821D01*
X79827371Y-84070500D01*
X80356376Y-84070500D01*
X80382034Y-84073140D01*
X80400044Y-84076886D01*
X80404329Y-84077856D01*
X80475243Y-84095208D01*
X80480845Y-84095556D01*
X80480848Y-84095556D01*
X80486397Y-84095900D01*
X80486395Y-84095936D01*
X80490388Y-84096175D01*
X80494580Y-84096549D01*
X80501748Y-84098040D01*
X80579153Y-84095946D01*
X80582561Y-84095900D01*
X88595530Y-84095900D01*
X88614480Y-84097333D01*
X88628715Y-84099499D01*
X88628719Y-84099499D01*
X88635949Y-84100599D01*
X88643241Y-84100006D01*
X88643244Y-84100006D01*
X88688618Y-84096315D01*
X88698833Y-84095900D01*
X88706893Y-84095900D01*
X88724280Y-84093873D01*
X88735107Y-84092611D01*
X88739482Y-84092178D01*
X88804939Y-84086854D01*
X88804942Y-84086853D01*
X88812237Y-84086260D01*
X88819201Y-84084004D01*
X88825160Y-84082813D01*
X88831015Y-84081429D01*
X88838281Y-84080582D01*
X88906927Y-84055665D01*
X88911055Y-84054248D01*
X88973536Y-84034007D01*
X88973538Y-84034006D01*
X88980499Y-84031751D01*
X88986754Y-84027955D01*
X88992228Y-84025449D01*
X88997658Y-84022730D01*
X89004537Y-84020233D01*
X89016170Y-84012606D01*
X89065576Y-83980214D01*
X89069280Y-83977877D01*
X89131707Y-83939995D01*
X89140084Y-83932597D01*
X89140108Y-83932624D01*
X89143100Y-83929971D01*
X89146333Y-83927268D01*
X89152452Y-83923256D01*
X89205728Y-83867017D01*
X89208106Y-83864575D01*
X89737010Y-83335671D01*
X89799322Y-83301645D01*
X89837087Y-83299245D01*
X89994525Y-83313019D01*
X90000000Y-83313498D01*
X90228087Y-83293543D01*
X90233400Y-83292119D01*
X90233402Y-83292119D01*
X90443933Y-83235707D01*
X90443935Y-83235706D01*
X90449243Y-83234284D01*
X90491501Y-83214579D01*
X90651762Y-83139849D01*
X90651767Y-83139846D01*
X90656749Y-83137523D01*
X90793230Y-83041958D01*
X90860503Y-83019270D01*
X90929363Y-83036555D01*
X90977948Y-83088324D01*
X90991500Y-83145171D01*
X90991500Y-87503629D01*
X90971498Y-87571750D01*
X90954595Y-87592724D01*
X90262990Y-88284329D01*
X90200678Y-88318355D01*
X90162913Y-88320755D01*
X90005475Y-88306981D01*
X90000000Y-88306502D01*
X89771913Y-88326457D01*
X89766600Y-88327881D01*
X89766598Y-88327881D01*
X89556067Y-88384293D01*
X89556065Y-88384294D01*
X89550757Y-88385716D01*
X89545776Y-88388039D01*
X89545775Y-88388039D01*
X89348238Y-88480151D01*
X89348233Y-88480154D01*
X89343251Y-88482477D01*
X89238389Y-88555902D01*
X89160211Y-88610643D01*
X89160208Y-88610645D01*
X89155700Y-88613802D01*
X88993802Y-88775700D01*
X88862477Y-88963251D01*
X88860154Y-88968233D01*
X88860151Y-88968238D01*
X88780423Y-89139217D01*
X88765716Y-89170757D01*
X88706457Y-89391913D01*
X88686502Y-89620000D01*
X88706457Y-89848087D01*
X88765716Y-90069243D01*
X88768039Y-90074224D01*
X88768039Y-90074225D01*
X88860151Y-90271762D01*
X88860154Y-90271767D01*
X88862477Y-90276749D01*
X88906033Y-90338953D01*
X88990640Y-90459784D01*
X88993802Y-90464300D01*
X89155700Y-90626198D01*
X89160208Y-90629355D01*
X89160211Y-90629357D01*
X89238389Y-90684098D01*
X89343251Y-90757523D01*
X89348233Y-90759846D01*
X89348238Y-90759849D01*
X89545775Y-90851961D01*
X89550757Y-90854284D01*
X89556065Y-90855706D01*
X89556067Y-90855707D01*
X89766598Y-90912119D01*
X89766600Y-90912119D01*
X89771913Y-90913543D01*
X90000000Y-90933498D01*
X90228087Y-90913543D01*
X90233400Y-90912119D01*
X90233402Y-90912119D01*
X90443933Y-90855707D01*
X90443935Y-90855706D01*
X90449243Y-90854284D01*
X90454225Y-90851961D01*
X90651762Y-90759849D01*
X90651767Y-90759846D01*
X90656749Y-90757523D01*
X90761611Y-90684098D01*
X90839789Y-90629357D01*
X90839792Y-90629355D01*
X90844300Y-90626198D01*
X91006198Y-90464300D01*
X91009361Y-90459784D01*
X91093967Y-90338953D01*
X91137523Y-90276749D01*
X91139846Y-90271767D01*
X91139849Y-90271762D01*
X91231961Y-90074225D01*
X91231961Y-90074224D01*
X91234284Y-90069243D01*
X91293543Y-89848087D01*
X91313498Y-89620000D01*
X91299245Y-89457086D01*
X91313234Y-89387482D01*
X91335671Y-89357010D01*
X91522441Y-89170240D01*
X91584753Y-89136214D01*
X91655568Y-89141279D01*
X91712404Y-89183826D01*
X91737215Y-89250346D01*
X91733243Y-89291946D01*
X91715809Y-89357010D01*
X91706457Y-89391913D01*
X91686502Y-89620000D01*
X91706457Y-89848087D01*
X91765716Y-90069243D01*
X91768039Y-90074224D01*
X91768039Y-90074225D01*
X91860151Y-90271762D01*
X91860154Y-90271767D01*
X91862477Y-90276749D01*
X91906033Y-90338953D01*
X91990640Y-90459784D01*
X91993802Y-90464300D01*
X92155700Y-90626198D01*
X92160208Y-90629355D01*
X92160211Y-90629357D01*
X92238389Y-90684098D01*
X92343251Y-90757523D01*
X92348233Y-90759846D01*
X92348238Y-90759849D01*
X92545775Y-90851961D01*
X92550757Y-90854284D01*
X92556065Y-90855706D01*
X92556067Y-90855707D01*
X92766598Y-90912119D01*
X92766600Y-90912119D01*
X92771913Y-90913543D01*
X93000000Y-90933498D01*
X93005475Y-90933019D01*
X93162913Y-90919245D01*
X93232518Y-90933234D01*
X93262990Y-90955671D01*
X93666230Y-91358911D01*
X93678616Y-91373323D01*
X93687149Y-91384918D01*
X93687154Y-91384923D01*
X93691492Y-91390818D01*
X93697070Y-91395557D01*
X93697073Y-91395560D01*
X93731768Y-91425035D01*
X93739284Y-91431965D01*
X93744979Y-91437660D01*
X93747861Y-91439940D01*
X93767251Y-91455281D01*
X93770655Y-91458072D01*
X93820703Y-91500591D01*
X93826285Y-91505333D01*
X93832801Y-91508661D01*
X93837850Y-91512028D01*
X93842979Y-91515195D01*
X93848716Y-91519734D01*
X93914875Y-91550655D01*
X93918769Y-91552558D01*
X93983808Y-91585769D01*
X93990916Y-91587508D01*
X93996559Y-91589607D01*
X94002322Y-91591524D01*
X94008950Y-91594622D01*
X94016112Y-91596112D01*
X94016113Y-91596112D01*
X94080412Y-91609486D01*
X94084696Y-91610456D01*
X94155610Y-91627808D01*
X94161212Y-91628156D01*
X94161215Y-91628156D01*
X94166764Y-91628500D01*
X94166762Y-91628536D01*
X94170755Y-91628775D01*
X94174947Y-91629149D01*
X94182115Y-91630640D01*
X94259520Y-91628546D01*
X94262928Y-91628500D01*
X97332930Y-91628500D01*
X97351880Y-91629933D01*
X97366115Y-91632099D01*
X97366119Y-91632099D01*
X97373349Y-91633199D01*
X97380641Y-91632606D01*
X97380644Y-91632606D01*
X97426018Y-91628915D01*
X97436233Y-91628500D01*
X97444293Y-91628500D01*
X97461680Y-91626473D01*
X97472507Y-91625211D01*
X97476882Y-91624778D01*
X97542339Y-91619454D01*
X97542342Y-91619453D01*
X97549637Y-91618860D01*
X97556601Y-91616604D01*
X97562560Y-91615413D01*
X97568415Y-91614029D01*
X97575681Y-91613182D01*
X97644327Y-91588265D01*
X97648455Y-91586848D01*
X97710936Y-91566607D01*
X97710938Y-91566606D01*
X97717899Y-91564351D01*
X97724154Y-91560555D01*
X97729628Y-91558049D01*
X97735058Y-91555330D01*
X97741937Y-91552833D01*
X97748058Y-91548820D01*
X97802976Y-91512814D01*
X97806680Y-91510477D01*
X97869107Y-91472595D01*
X97877484Y-91465197D01*
X97877508Y-91465224D01*
X97880500Y-91462571D01*
X97883733Y-91459868D01*
X97889852Y-91455856D01*
X97943128Y-91399617D01*
X97945506Y-91397175D01*
X99673061Y-89669620D01*
X99735373Y-89635594D01*
X99806188Y-89640659D01*
X99863024Y-89683206D01*
X99887677Y-89747733D01*
X99896457Y-89848087D01*
X99955716Y-90069243D01*
X99958039Y-90074224D01*
X99958039Y-90074225D01*
X100050151Y-90271762D01*
X100050154Y-90271767D01*
X100052477Y-90276749D01*
X100096033Y-90338953D01*
X100180640Y-90459784D01*
X100183802Y-90464300D01*
X100345700Y-90626198D01*
X100350208Y-90629355D01*
X100350211Y-90629357D01*
X100428389Y-90684098D01*
X100533251Y-90757523D01*
X100538233Y-90759846D01*
X100538238Y-90759849D01*
X100709217Y-90839577D01*
X100762502Y-90886494D01*
X100781963Y-90954771D01*
X100761421Y-91022731D01*
X100745062Y-91042867D01*
X93325495Y-98462434D01*
X93263183Y-98496460D01*
X93236400Y-98499339D01*
X77323712Y-98499339D01*
X77255591Y-98479337D01*
X77234617Y-98462434D01*
X77203045Y-98430862D01*
X77198537Y-98427705D01*
X77198534Y-98427703D01*
X77133453Y-98382133D01*
X77089125Y-98326676D01*
X77081816Y-98256056D01*
X77111208Y-98195597D01*
X77152375Y-98148903D01*
X77251672Y-97975521D01*
X77314077Y-97785714D01*
X77337042Y-97587236D01*
X77319628Y-97388193D01*
X77287109Y-97274033D01*
X77081800Y-96739184D01*
X76906930Y-96283634D01*
X76905927Y-96281021D01*
X76904704Y-96278525D01*
X76904699Y-96278513D01*
X76856344Y-96179808D01*
X76856342Y-96179805D01*
X76853706Y-96174424D01*
X76733462Y-96014855D01*
X76583587Y-95882723D01*
X76548400Y-95862571D01*
X76415746Y-95786599D01*
X76415743Y-95786598D01*
X76410205Y-95783426D01*
X76404140Y-95781432D01*
X76404138Y-95781431D01*
X76226464Y-95723015D01*
X76226463Y-95723015D01*
X76220399Y-95721021D01*
X76214063Y-95720288D01*
X76214059Y-95720287D01*
X76087037Y-95705590D01*
X76021920Y-95698056D01*
X76015564Y-95698612D01*
X76015562Y-95698612D01*
X75892959Y-95709339D01*
X75822877Y-95715470D01*
X75708717Y-95747989D01*
X75706098Y-95748994D01*
X75706093Y-95748996D01*
X75326618Y-95894663D01*
X74435631Y-96236681D01*
X74433121Y-96237911D01*
X74433111Y-96237915D01*
X74382957Y-96262486D01*
X74329035Y-96288902D01*
X74169465Y-96409147D01*
X74037333Y-96559021D01*
X74034161Y-96564560D01*
X74034160Y-96564561D01*
X73962313Y-96690012D01*
X73911102Y-96739184D01*
X73841435Y-96752863D01*
X73775433Y-96726707D01*
X73735188Y-96672140D01*
X73590968Y-96292513D01*
X72711632Y-93977869D01*
X85886689Y-93977869D01*
X85903238Y-94264883D01*
X85904063Y-94269088D01*
X85904064Y-94269096D01*
X85936010Y-94431921D01*
X85958586Y-94546995D01*
X85959973Y-94551045D01*
X85959974Y-94551050D01*
X86035557Y-94771807D01*
X86051710Y-94818986D01*
X86053637Y-94822817D01*
X86141310Y-94997135D01*
X86180885Y-95075822D01*
X86343721Y-95312750D01*
X86537206Y-95525388D01*
X86540501Y-95528143D01*
X86540502Y-95528144D01*
X86744594Y-95698790D01*
X86757759Y-95709798D01*
X87001298Y-95862571D01*
X87263318Y-95980877D01*
X87267437Y-95982097D01*
X87534857Y-96061311D01*
X87534862Y-96061312D01*
X87538970Y-96062529D01*
X87543204Y-96063177D01*
X87543209Y-96063178D01*
X87791811Y-96101219D01*
X87823153Y-96106015D01*
X87969485Y-96108314D01*
X88106317Y-96110464D01*
X88106323Y-96110464D01*
X88110608Y-96110531D01*
X88114860Y-96110016D01*
X88114868Y-96110016D01*
X88391756Y-96076508D01*
X88391761Y-96076507D01*
X88396017Y-96075992D01*
X88629057Y-96014855D01*
X88669954Y-96004126D01*
X88669955Y-96004126D01*
X88674097Y-96003039D01*
X88939704Y-95893021D01*
X89187922Y-95747974D01*
X89414159Y-95570582D01*
X89455285Y-95528144D01*
X89611244Y-95367206D01*
X89614227Y-95364128D01*
X89616760Y-95360680D01*
X89616764Y-95360675D01*
X89781887Y-95135886D01*
X89784425Y-95132431D01*
X89921604Y-94879779D01*
X90023225Y-94610848D01*
X90087407Y-94330613D01*
X90101675Y-94170748D01*
X90112743Y-94046726D01*
X90112743Y-94046724D01*
X90112963Y-94044260D01*
X90113427Y-94000000D01*
X90093873Y-93713175D01*
X90089336Y-93691264D01*
X90036443Y-93435855D01*
X90035574Y-93431658D01*
X89939607Y-93160657D01*
X89807750Y-92905188D01*
X89794488Y-92886317D01*
X89644904Y-92673482D01*
X89642441Y-92669977D01*
X89446740Y-92459378D01*
X89224268Y-92277287D01*
X88979142Y-92127073D01*
X88961048Y-92119130D01*
X88719830Y-92013243D01*
X88715898Y-92011517D01*
X88689963Y-92004129D01*
X88443534Y-91933932D01*
X88443535Y-91933932D01*
X88439406Y-91932756D01*
X88226704Y-91902485D01*
X88159036Y-91892854D01*
X88159034Y-91892854D01*
X88154784Y-91892249D01*
X88150495Y-91892227D01*
X88150488Y-91892226D01*
X87871583Y-91890765D01*
X87871576Y-91890765D01*
X87867297Y-91890743D01*
X87863053Y-91891302D01*
X87863049Y-91891302D01*
X87737660Y-91907810D01*
X87582266Y-91928268D01*
X87578126Y-91929401D01*
X87578124Y-91929401D01*
X87501311Y-91950415D01*
X87304964Y-92004129D01*
X87301016Y-92005813D01*
X87044476Y-92115237D01*
X87044472Y-92115239D01*
X87040524Y-92116923D01*
X86915960Y-92191473D01*
X86797521Y-92262357D01*
X86797517Y-92262360D01*
X86793839Y-92264561D01*
X86569472Y-92444313D01*
X86371577Y-92652851D01*
X86203814Y-92886317D01*
X86069288Y-93140392D01*
X85970489Y-93410373D01*
X85909245Y-93691264D01*
X85908909Y-93695534D01*
X85887196Y-93971428D01*
X85887195Y-93971428D01*
X85887196Y-93971430D01*
X85886689Y-93977869D01*
X72711632Y-93977869D01*
X69867716Y-86491928D01*
X66781030Y-78366954D01*
X66777076Y-78354691D01*
X66768887Y-78324002D01*
X66766574Y-78315333D01*
X66761919Y-78307658D01*
X66756401Y-78298561D01*
X66746506Y-78278384D01*
X66643127Y-78009167D01*
X66636802Y-77992694D01*
X66632975Y-77981071D01*
X66578693Y-77784533D01*
X66543635Y-77657600D01*
X66540956Y-77645667D01*
X66539542Y-77637539D01*
X66483418Y-77315063D01*
X66481908Y-77302920D01*
X66456712Y-76968295D01*
X66456387Y-76956061D01*
X66461969Y-76702460D01*
X66463771Y-76620567D01*
X66464634Y-76608365D01*
X66465135Y-76604181D01*
X66504529Y-76275166D01*
X66506571Y-76263108D01*
X66510151Y-76246821D01*
X66552727Y-76053086D01*
X66578600Y-75935356D01*
X66581804Y-75923545D01*
X66678170Y-75626281D01*
X66685290Y-75604320D01*
X66689616Y-75592897D01*
X66823589Y-75285194D01*
X66829010Y-75274234D01*
X66992180Y-74981018D01*
X66998642Y-74970627D01*
X67189504Y-74694596D01*
X67196945Y-74684880D01*
X67199141Y-74682285D01*
X67285838Y-74579797D01*
X67413668Y-74428686D01*
X67422016Y-74419738D01*
X67662572Y-74185773D01*
X67671748Y-74177677D01*
X67933870Y-73968147D01*
X67943789Y-73960979D01*
X68224992Y-73777872D01*
X68235558Y-73771701D01*
X68500437Y-73633791D01*
X68524163Y-73624356D01*
X68535118Y-73621241D01*
X68542721Y-73616458D01*
X68542919Y-73616370D01*
X68544448Y-73615776D01*
X68545790Y-73615142D01*
X68547195Y-73614351D01*
X68547414Y-73614241D01*
X68555926Y-73611404D01*
X68579338Y-73595170D01*
X68594612Y-73586102D01*
X69962704Y-72899453D01*
X70131446Y-72814761D01*
X70133956Y-72813536D01*
X71255333Y-72281500D01*
X71722105Y-72060040D01*
X71724628Y-72058877D01*
X71750493Y-72047301D01*
X73329126Y-71340760D01*
X73331679Y-71339651D01*
X73340777Y-71335819D01*
X74951751Y-70657260D01*
X74954300Y-70656221D01*
X76589029Y-70009942D01*
X76591624Y-70008949D01*
X78240231Y-69399088D01*
X78242861Y-69398147D01*
X79904703Y-68824941D01*
X79907354Y-68824060D01*
X80860893Y-68518644D01*
X81581426Y-68287860D01*
X81584017Y-68287061D01*
X83207980Y-67806335D01*
X83269621Y-67788088D01*
X83272308Y-67787325D01*
X83826770Y-67636478D01*
X84968527Y-67325852D01*
X84971195Y-67325158D01*
X85488274Y-67196722D01*
X86677184Y-66901412D01*
X86679903Y-66900768D01*
X88117761Y-66577288D01*
X88394952Y-66514927D01*
X88397677Y-66514347D01*
X90120716Y-66166652D01*
X90123460Y-66166129D01*
X90386191Y-66119148D01*
X91853944Y-65856688D01*
X91856621Y-65856239D01*
X93593487Y-65585247D01*
X93596252Y-65584847D01*
X95338687Y-65352427D01*
X95341459Y-65352089D01*
X96218861Y-65254797D01*
X97088576Y-65158358D01*
X97091275Y-65158088D01*
X98108038Y-65068111D01*
X98842375Y-65003128D01*
X98845160Y-65002913D01*
X99618452Y-64951729D01*
X100599217Y-64886813D01*
X100601932Y-64886664D01*
X101969148Y-64826575D01*
X102358080Y-64809481D01*
X102360872Y-64809389D01*
X104118306Y-64771158D01*
X104121099Y-64771128D01*
X105007145Y-64771499D01*
G37*
G04 #@! TD.AperFunction*
M02*
